<svg width="54" height="54" viewBox="0 0 54 54" fill="none" xmlns="http://www.w3.org/2000/svg">
<path d="M7.27667 17.9489C11.1868 17.9489 14.3566 14.7791 14.3566 10.869C14.3566 6.95884 11.1868 3.78906 7.27667 3.78906C3.36655 3.78906 0.196777 6.95884 0.196777 10.869C0.196777 14.7791 3.36655 17.9489 7.27667 17.9489Z" fill="white"/>
<path d="M24.9764 17.9489C28.8865 17.9489 32.0563 14.7791 32.0563 10.869C32.0563 6.95884 28.8865 3.78906 24.9764 3.78906C21.0663 3.78906 17.8965 6.95884 17.8965 10.869C17.8965 14.7791 21.0663 17.9489 24.9764 17.9489Z" fill="white"/>
<path d="M46.2161 14.4078C50.1262 14.4078 53.296 11.2381 53.296 7.32794C53.296 3.41782 50.1262 0.248047 46.2161 0.248047C42.306 0.248047 39.1362 3.41782 39.1362 7.32794C39.1362 11.2381 42.306 14.4078 46.2161 14.4078Z" fill="white"/>
<path d="M7.27667 35.6481C11.1868 35.6481 14.3566 32.4783 14.3566 28.5682C14.3566 24.6581 11.1868 21.4883 7.27667 21.4883C3.36655 21.4883 0.196777 24.6581 0.196777 28.5682C0.196777 32.4783 3.36655 35.6481 7.27667 35.6481Z" fill="white"/>
<path d="M24.9764 35.6481C28.8865 35.6481 32.0563 32.4783 32.0563 28.5682C32.0563 24.6581 28.8865 21.4883 24.9764 21.4883C21.0663 21.4883 17.8965 24.6581 17.8965 28.5682C17.8965 32.4783 21.0663 35.6481 24.9764 35.6481Z" fill="white"/>
<path d="M42.6761 35.6481C46.5862 35.6481 49.756 32.4783 49.756 28.5682C49.756 24.6581 46.5862 21.4883 42.6761 21.4883C38.766 21.4883 35.5962 24.6581 35.5962 28.5682C35.5962 32.4783 38.766 35.6481 42.6761 35.6481Z" fill="white"/>
<path d="M7.27667 53.3473C11.1868 53.3473 14.3566 50.1775 14.3566 46.2674C14.3566 42.3573 11.1868 39.1875 7.27667 39.1875C3.36655 39.1875 0.196777 42.3573 0.196777 46.2674C0.196777 50.1775 3.36655 53.3473 7.27667 53.3473Z" fill="white"/>
<path d="M24.9764 53.3473C28.8865 53.3473 32.0563 50.1775 32.0563 46.2674C32.0563 42.3573 28.8865 39.1875 24.9764 39.1875C21.0663 39.1875 17.8965 42.3573 17.8965 46.2674C17.8965 50.1775 21.0663 53.3473 24.9764 53.3473Z" fill="white"/>
<path d="M42.6761 53.3473C46.5862 53.3473 49.756 50.1775 49.756 46.2674C49.756 42.3573 46.5862 39.1875 42.6761 39.1875C38.766 39.1875 35.5962 42.3573 35.5962 46.2674C35.5962 50.1775 38.766 53.3473 42.6761 53.3473Z" fill="white"/>
</svg>
