<svg width="497" height="378" viewBox="0 0 497 378" fill="none" xmlns="http://www.w3.org/2000/svg">
<g opacity="0.32">
<g opacity="0.29">
<path d="M212.758 91.4607C184.106 72.1998 155.453 52.9389 126.801 33.678C111.395 23.3396 101.466 9.38744 97.7527 -8.55243C94.8434 -22.6062 96.5722 -36.3132 102.7 -49.5296C106.638 -58.0223 112.225 -65.3909 119.246 -71.7582C119.344 -71.7979 119.45 -71.817 119.556 -71.8142C119.662 -71.8113 119.765 -71.7866 119.86 -71.7417C121.486 -70.793 123.17 -69.9159 124.437 -68.4963C124.564 -67.8333 124.023 -67.5237 123.627 -67.1665C119.997 -63.907 116.762 -60.2568 113.987 -56.2891C108.885 -49.04 105.444 -40.8317 103.904 -32.2296C101.649 -19.6991 103.299 -7.6964 108.678 3.73809C112.529 11.9273 118.123 18.8426 125.257 24.5941C126.968 25.9746 128.777 27.2063 130.598 28.4304C158.612 47.2621 186.628 66.0951 214.646 84.9295C215.296 85.3668 216.104 85.6733 216.347 86.5309L212.758 91.4607Z" fill="#102030"/>
<path d="M233.257 63.0119C232.767 62.6825 232.289 62.3397 231.795 62.0074C203.874 43.2379 175.951 24.4735 148.026 5.71421C142.757 2.17195 138.249 -2.00225 135.591 -7.77725C130.719 -18.3248 131.347 -28.7329 137.615 -38.9335C140.594 -43.7857 144.74 -47.5417 149.726 -50.406C149.95 -50.5331 150.153 -50.6926 150.368 -50.838C150.529 -50.9039 150.708 -50.9064 150.867 -50.8451C152.721 -49.8076 154.603 -48.8043 156.037 -47.2136C155.968 -46.3661 155.213 -46.1753 154.622 -45.8938C150.176 -43.8255 146.371 -40.6071 143.635 -36.6004C139.825 -31.0886 138.282 -25.0714 139.091 -18.6136C140.051 -10.8702 143.944 -4.86617 150.469 -0.48321C178.688 18.4633 206.893 37.4237 235.085 56.3981C235.77 56.8591 236.621 57.1786 236.88 58.0819C235.757 59.7814 234.548 61.4268 233.257 63.0119Z" fill="#E6EAED"/>
<path d="M240.271 53.3014C241.163 52.1085 241.992 50.8606 242.971 49.7382C243.819 48.7657 243.56 48.2986 242.58 47.6434C233.044 41.2851 223.544 34.8806 214.036 28.4829C213.305 27.991 212.605 27.4374 211.901 26.9206C210.672 25.1415 208.743 24.3259 206.818 23.5041C205.136 22.3732 203.447 21.2381 201.753 20.0988C200.184 18.7624 198.463 17.605 196.62 16.6483C194.843 15.6028 193.138 14.4493 191.514 13.1946C190.27 12.0192 188.646 11.3222 187.407 10.1407C187.086 9.86945 186.682 9.70604 186.254 9.6739C184.391 8.52945 182.523 7.39123 180.822 6.02267C180.82 5.93925 180.798 5.85794 180.757 5.78539C180.716 5.71284 180.658 5.65111 180.587 5.60523C178.943 4.58969 177.279 3.59764 175.762 2.40222C175.542 2.27458 175.28 2.22648 175.023 2.26617L168.761 -1.94341C169.599 -2.17627 170.167 -2.34349 170.739 -2.48978C180.685 -5.05949 187.582 -14.8592 186.425 -24.7197C185.644 -31.3781 182.101 -36.2466 176.563 -39.963C147.828 -59.2449 119.108 -78.5464 90.4026 -97.8675C89.9127 -98.1969 89.4348 -98.5428 88.9502 -98.884C87.5386 -97.3925 86.4248 -95.6946 85.3256 -93.9869C90.6709 -90.3936 96.0162 -86.8004 101.361 -83.2071C107.265 -79.2388 113.16 -75.2601 119.049 -71.271C120.756 -70.1232 122.463 -68.9754 124.171 -67.8276L124.261 -67.7668C125.917 -66.6538 127.573 -65.5409 129.228 -64.4279C130.535 -62.8276 132.301 -61.6407 134.311 -61.0114C136.036 -59.8513 137.761 -58.6917 139.486 -57.5326C140.849 -55.888 142.676 -54.6664 144.752 -54.0111C146.532 -52.8143 148.312 -51.6175 150.093 -50.4207C151.973 -49.157 153.854 -47.8919 155.739 -46.6253L162.089 -42.3563C161.451 -42.1926 161.007 -42.0841 160.558 -41.9693C154.105 -40.1987 149.235 -36.4624 146.443 -30.5089C141.977 -20.9788 144.951 -10.7697 153.673 -4.90628C182.547 14.4908 211.413 33.8933 240.271 53.3014ZM153.189 -30.3862C157.932 -36.9351 167.401 -38.7857 173.942 -34.4348C180.905 -29.8032 182.603 -20.7851 177.799 -14.0397C173.03 -7.34201 163.529 -5.55926 156.741 -10.0825C150.033 -14.5486 148.424 -23.8062 153.189 -30.3862Z" fill="#102030"/>
<path d="M211.608 26.7059C209.842 25.6806 208.149 24.5428 206.541 23.2998C210.015 20.2327 213.175 16.8436 215.972 13.1827C221.131 6.30865 224.88 -1.20496 226.717 -9.45773C231.557 -31.205 226.191 -50.0754 210.77 -65.9925C208.154 -68.6398 205.258 -71.0112 202.128 -73.0693C173.043 -92.6375 143.951 -112.194 114.851 -131.739C113.174 -132.867 113.349 -132.552 114.448 -134.036C115.262 -135.16 115.818 -136.96 117.035 -137.178C118.161 -137.377 119.29 -135.928 120.399 -135.182C149.254 -115.798 178.1 -96.4059 206.94 -77.0068C207.221 -76.818 207.509 -76.643 207.792 -76.4618C217.272 -69.4229 224.564 -60.6541 229.132 -49.8873C236.934 -31.5316 236.473 -13.1354 227.751 5.3013C223.876 13.476 218.368 20.5384 211.608 26.7059Z" fill="#102030"/>
<path d="M201.441 19.8347C199.63 18.8292 197.914 17.6755 196.31 16.3858C220.792 -2.31725 223.281 -37.4794 201.599 -58.1926C199.576 -60.1321 197.385 -61.8992 195.049 -63.4751C165.489 -83.3341 135.935 -103.201 106.388 -123.076C107.262 -124.648 108.464 -125.998 109.451 -127.473C109.735 -127.899 110.027 -127.915 110.405 -127.64C110.675 -127.44 110.965 -127.263 111.244 -127.076C140.139 -107.651 169.15 -88.3808 197.892 -68.7446C216.749 -55.8617 224.788 -37.7558 221.68 -15.1875C219.796 -1.49712 212.916 9.89304 202.212 19.1532C201.951 19.3792 201.703 19.6101 201.441 19.8347Z" fill="#26425A"/>
<path d="M129.212 -64.6078C130.908 -63.4675 132.604 -62.3277 134.299 -61.1884C129.49 -57.4304 125.382 -53.067 122.168 -47.9465C115.669 -37.5855 113.262 -26.4238 115.078 -14.542C116.811 -3.15222 122.159 6.41842 130.807 14.2368C132.796 15.9845 134.914 17.5911 137.144 19.0443C165.475 38.0889 193.809 57.1239 222.147 76.1493C223.082 76.7775 223.19 77.2076 222.463 78.064C221.475 79.2338 220.624 80.4956 219.714 81.7178C190.71 62.2204 161.707 42.724 132.706 23.2285C122.054 16.0868 114.287 5.60692 110.691 -6.47721C107.094 -18.5613 107.884 -31.5254 112.928 -43.2244C116.488 -51.5101 122.079 -58.8518 129.212 -64.6078Z" fill="#26425A"/>
<path d="M191.221 12.8885C189.267 12.0008 187.643 10.6621 185.98 9.36484C190.763 6.25154 194.872 2.45407 197.905 -2.31979C205.578 -14.3483 206.49 -26.7564 200.65 -39.3804C197.711 -45.7346 193.071 -50.739 187.026 -54.4844C186.589 -54.8096 186.163 -55.1479 185.713 -55.4509C157.477 -74.4315 129.242 -93.4121 101.007 -112.393C98.9795 -113.756 99.2928 -113.366 100.574 -115.152C101.345 -116.217 101.992 -117.377 102.982 -118.292C103.47 -117.963 103.945 -117.616 104.436 -117.286C133.466 -97.7712 162.496 -78.2564 191.525 -58.7421C199.565 -53.3347 205.491 -45.4655 208.393 -36.3421C211.296 -27.2186 211.014 -17.345 207.592 -8.23636C204.339 0.397454 198.785 7.3682 191.221 12.8885Z" fill="#81A8C7"/>
<path d="M139.491 -57.68L144.76 -54.1562C131.335 -45.1522 125.169 -32.8203 126.968 -17.2083C128.236 -6.21613 133.951 2.477 143.272 8.76777C171.808 28.0276 200.381 47.2354 228.992 66.3913C230.08 67.1225 230.171 67.5926 229.351 68.5443C228.413 69.6311 227.625 70.8364 226.771 71.9943C197.337 52.2079 167.837 32.5084 138.487 12.6072C122.456 1.73948 116.289 -19.7368 123.611 -37.7654C126.914 -45.8948 132.231 -52.5062 139.491 -57.68Z" fill="#81A8C7"/>
<path d="M180.5 5.68321C178.426 4.64419 176.586 3.27088 174.718 1.93841C178.56 0.44223 182.024 -1.8757 184.849 -4.84C187.674 -7.8043 189.785 -11.3373 191.023 -15.1718C192.261 -19.0063 192.593 -23.0418 191.994 -26.973C191.396 -30.9042 189.882 -34.6282 187.567 -37.8632C185.724 -40.4395 183.416 -42.6643 180.75 -44.4336C151.721 -63.9599 122.681 -83.4703 93.6295 -102.965C92.5314 -103.703 92.4706 -104.191 93.2968 -105.151C94.2444 -106.249 95.0528 -107.456 95.9246 -108.617C125.559 -88.6956 155.193 -68.7742 184.829 -48.8524C197.612 -40.2589 202.002 -22.8757 194.928 -9.03792C191.808 -2.80595 186.754 2.3498 180.5 5.68321Z" fill="#E6EAED"/>
</g>
<g opacity="0.29">
<path d="M369.986 13.1892C341.334 -6.07168 312.682 -25.3326 284.029 -44.5935C268.623 -54.9319 258.694 -68.884 254.981 -86.8239C252.071 -100.878 253.8 -114.585 259.928 -127.801C263.866 -136.294 269.453 -143.662 276.474 -150.03C276.572 -150.069 276.678 -150.088 276.784 -150.086C276.89 -150.083 276.993 -150.058 277.088 -150.013C278.714 -149.064 280.398 -148.187 281.665 -146.768C281.792 -146.105 281.251 -145.795 280.855 -145.438C277.225 -142.179 273.99 -138.528 271.215 -134.561C266.113 -127.311 262.672 -119.103 261.132 -110.501C258.878 -97.9706 260.527 -85.9679 265.906 -74.5334C269.757 -66.3441 275.351 -59.4288 282.485 -53.6774C284.196 -52.2968 286.005 -51.0652 287.826 -49.841C315.84 -31.0094 343.856 -12.1764 371.874 6.65805C372.524 7.09535 373.332 7.40185 373.575 8.25941L369.986 13.1892Z" fill="#102030"/>
<path d="M286.44 -142.879C288.136 -141.739 289.832 -140.599 291.527 -139.46C286.718 -135.702 282.61 -131.338 279.396 -126.218C272.897 -115.857 270.49 -104.695 272.306 -92.8135C274.039 -81.4237 279.387 -71.8531 288.035 -64.0347C290.025 -62.287 292.142 -60.6804 294.372 -59.2272C322.703 -40.1825 351.037 -21.1475 379.375 -2.12218C380.31 -1.49402 380.418 -1.06391 379.691 -0.207458C378.703 0.962358 377.852 2.22413 376.942 3.4463C347.938 -16.0511 318.935 -35.5475 289.934 -55.043C279.282 -62.1846 271.515 -72.6646 267.919 -84.7487C264.322 -96.8328 265.112 -109.797 270.156 -121.496C273.716 -129.782 279.307 -137.123 286.44 -142.879Z" fill="#26425A"/>
</g>
<g opacity="0.29">
<path d="M568.635 335.049C539.983 315.788 511.33 296.527 482.678 277.266C467.272 266.928 457.343 252.976 453.63 235.036C450.72 220.982 452.449 207.275 458.577 194.059C462.515 185.566 468.101 178.197 475.123 171.83C475.221 171.79 475.327 171.771 475.433 171.774C475.539 171.777 475.642 171.802 475.737 171.847C477.363 172.795 479.047 173.673 480.313 175.092C480.441 175.755 479.9 176.065 479.504 176.422C475.874 179.681 472.639 183.332 469.864 187.299C464.762 194.548 461.321 202.757 459.78 211.359C457.526 223.889 459.176 235.892 464.555 247.326C468.406 255.516 474 262.431 481.134 268.182C482.845 269.563 484.654 270.795 486.475 272.019C514.489 290.85 542.505 309.683 570.522 328.518C571.173 328.955 571.981 329.262 572.224 330.119L568.635 335.049Z" fill="#102030"/>
<path d="M589.134 306.6C588.644 306.271 588.166 305.928 587.672 305.596C559.751 286.826 531.828 268.062 503.903 249.303C498.634 245.76 494.126 241.586 491.468 235.811C486.596 225.264 487.224 214.855 493.492 204.655C496.471 199.803 500.617 196.047 505.603 193.182C505.827 193.055 506.03 192.896 506.245 192.75C506.406 192.685 506.585 192.682 506.744 192.743C508.598 193.781 510.48 194.784 511.914 196.375C511.845 197.222 511.09 197.413 510.499 197.695C506.053 199.763 502.248 202.981 499.512 206.988C495.702 212.5 494.159 218.517 494.968 224.975C495.928 232.718 499.821 238.722 506.346 243.105C534.564 262.052 562.77 281.012 590.962 299.986C591.647 300.447 592.498 300.767 592.757 301.67C591.634 303.37 590.425 305.015 589.134 306.6Z" fill="#E6EAED"/>
<path d="M596.148 296.889C597.04 295.696 597.869 294.449 598.848 293.326C599.696 292.354 599.437 291.887 598.457 291.231C588.921 284.873 579.421 278.468 569.913 272.071C569.182 271.579 568.482 271.025 567.778 270.509C566.549 268.729 564.62 267.914 562.695 267.092C561.013 265.961 559.324 264.826 557.629 263.687C556.061 262.35 554.34 261.193 552.497 260.236C550.72 259.191 549.015 258.037 547.391 256.782C546.147 255.607 544.523 254.91 543.284 253.729C542.963 253.457 542.559 253.294 542.131 253.262C540.268 252.117 538.4 250.979 536.699 249.611C536.697 249.527 536.675 249.446 536.634 249.373C536.593 249.301 536.535 249.239 536.464 249.193C534.82 248.178 533.156 247.186 531.639 245.99C531.419 245.862 531.157 245.814 530.9 245.854L524.638 241.644C525.476 241.412 526.044 241.244 526.616 241.098C536.562 238.528 543.458 228.729 542.302 218.868C541.521 212.21 537.978 207.341 532.44 203.625C503.705 184.343 474.985 165.041 446.28 145.72C445.79 145.391 445.312 145.045 444.827 144.704C443.416 146.195 442.302 147.893 441.203 149.601C446.548 153.194 451.893 156.788 457.238 160.381C463.142 164.349 469.037 168.328 474.926 172.317C476.633 173.465 478.34 174.613 480.048 175.76L480.138 175.821C481.794 176.934 483.45 178.047 485.105 179.16C486.412 180.76 488.178 181.947 490.188 182.577C491.913 183.737 493.638 184.896 495.363 186.055C496.726 187.7 498.553 188.922 500.628 189.577C502.409 190.774 504.189 191.97 505.97 193.167C507.849 194.431 509.731 195.696 511.616 196.963L517.966 201.232C517.328 201.395 516.884 201.504 516.435 201.619C509.982 203.389 505.112 207.126 502.32 213.079C497.854 222.609 500.828 232.818 509.55 238.682C538.424 258.079 567.289 277.481 596.148 296.889ZM509.066 213.202C513.809 206.653 523.278 204.802 529.819 209.153C536.782 213.785 538.48 222.803 533.676 229.548C528.907 236.246 519.406 238.029 512.617 233.505C505.91 229.039 504.301 219.782 509.066 213.202Z" fill="#102030"/>
<path d="M567.483 270.297C565.717 269.271 564.024 268.134 562.416 266.891C565.89 263.824 569.05 260.434 571.847 256.774C577.006 249.899 580.755 242.386 582.592 234.133C587.432 212.386 582.066 193.515 566.645 177.598C564.029 174.951 561.133 172.58 558.003 170.521C528.918 150.953 499.826 131.397 470.726 111.852C469.049 110.724 469.224 111.039 470.323 109.555C471.137 108.431 471.693 106.63 472.91 106.413C474.036 106.214 475.165 107.663 476.274 108.409C505.129 127.793 533.975 147.185 562.815 166.584C563.096 166.773 563.384 166.948 563.667 167.129C573.147 174.168 580.439 182.937 585.007 193.703C592.809 212.059 592.348 230.455 583.626 248.892C579.751 257.067 574.243 264.129 567.483 270.297Z" fill="#102030"/>
<path d="M557.317 263.426C555.506 262.42 553.79 261.267 552.186 259.977C576.668 241.274 579.157 206.112 557.475 185.399C555.452 183.459 553.261 181.692 550.925 180.116C521.365 160.257 491.811 140.39 462.264 120.516C463.138 118.944 464.34 117.593 465.327 116.119C465.611 115.692 465.903 115.676 466.281 115.952C466.551 116.151 466.841 116.328 467.12 116.516C496.015 135.94 525.026 155.211 553.768 174.847C572.625 187.73 580.664 205.836 577.556 228.404C575.672 242.094 568.792 253.484 558.088 262.745C557.827 262.97 557.579 263.201 557.317 263.426Z" fill="#26425A"/>
<path d="M485.089 178.981C486.785 180.121 488.481 181.261 490.175 182.4C485.367 186.158 481.259 190.521 478.045 195.642C471.546 206.003 469.139 217.165 470.954 229.046C472.688 240.436 478.035 250.007 486.683 257.825C488.673 259.573 490.791 261.179 493.021 262.633C521.351 281.677 549.686 300.712 578.024 319.738C578.958 320.366 579.066 320.796 578.339 321.652C577.351 322.822 576.5 324.084 575.59 325.306C546.586 305.809 517.584 286.312 488.582 266.817C477.931 259.675 470.164 249.195 466.567 237.111C462.971 225.027 463.76 212.063 468.805 200.364C472.365 192.078 477.955 184.737 485.089 178.981Z" fill="#26425A"/>
<path d="M547.098 256.478C545.144 255.59 543.52 254.251 541.856 252.954C546.639 249.841 550.748 246.043 553.782 241.27C561.454 229.241 562.366 216.833 556.526 204.209C553.587 197.855 548.947 192.85 542.903 189.105C542.465 188.78 542.04 188.441 541.589 188.138C513.354 169.158 485.119 150.177 456.883 131.197C454.856 129.834 455.169 130.223 456.45 128.437C457.221 127.373 457.868 126.212 458.858 125.298C459.347 125.626 459.822 125.973 460.312 126.303C489.343 145.818 518.372 165.333 547.402 184.847C555.441 190.255 561.367 198.124 564.27 207.247C567.172 216.371 566.891 226.244 563.469 235.353C560.215 243.987 554.662 250.958 547.098 256.478Z" fill="#81A8C7"/>
<path d="M495.367 185.908L500.636 189.432C487.211 198.436 481.046 210.768 482.845 226.38C484.113 237.372 489.827 246.065 499.149 252.356C527.685 271.616 556.258 290.824 584.869 309.98C585.956 310.711 586.048 311.181 585.227 312.133C584.29 313.22 583.502 314.425 582.647 315.583C553.214 295.796 523.714 276.097 494.363 256.196C478.333 245.328 472.165 223.852 479.487 205.823C482.791 197.694 488.107 191.082 495.367 185.908Z" fill="#81A8C7"/>
<path d="M536.376 249.273C534.302 248.234 532.461 246.861 530.594 245.528C534.436 244.032 537.9 241.714 540.725 238.75C543.549 235.786 545.661 232.253 546.898 228.418C548.136 224.584 548.468 220.548 547.87 216.617C547.271 212.686 545.757 208.962 543.443 205.727C541.6 203.15 539.291 200.926 536.626 199.156C507.597 179.63 478.557 160.12 449.505 140.625C448.407 139.887 448.346 139.398 449.172 138.438C450.12 137.341 450.928 136.134 451.8 134.973C481.434 154.894 511.069 174.816 540.704 194.737C553.488 203.331 557.877 220.714 550.804 234.552C547.683 240.784 542.63 245.94 536.376 249.273Z" fill="#E6EAED"/>
</g>
<g opacity="0.29">
<path d="M470.107 103.858C441.68 84.29 413.253 64.7218 384.826 45.1536C369.559 34.6254 352.592 30.2815 333.807 32.9166C319.091 34.9807 306.268 41.1402 295.397 51.1304C288.411 57.5495 283.077 65.0898 279.202 73.5977C279.196 73.7004 279.213 73.8027 279.251 73.8979C279.29 73.9931 279.348 74.079 279.424 74.1498C280.896 75.3087 282.318 76.5443 284.13 77.2188C284.821 77.1122 284.942 76.5179 285.159 76.0384C287.131 71.6509 289.617 67.4913 292.567 63.6428C297.946 56.582 304.82 50.7096 312.716 46.4301C324.213 40.1875 336.501 37.6664 349.483 38.722C358.78 39.4768 367.414 42.2405 375.427 46.7932C377.35 47.8845 379.16 49.1151 380.967 50.3587C408.76 69.4908 436.556 88.6244 464.353 107.759C464.999 108.204 465.569 108.835 466.489 108.768L470.107 103.858Z" fill="#102030"/>
<path d="M449.155 131.998C448.668 131.664 448.173 131.345 447.683 131.007C419.981 111.938 392.284 92.866 364.591 73.7906C359.363 70.1918 353.772 67.4956 347.235 67.0159C335.29 66.1236 325.324 70.1795 317.449 79.2864C313.702 83.6164 311.417 88.6391 310.286 94.1258C310.237 94.3713 310.149 94.6091 310.079 94.8528C310.068 95.0212 310.126 95.1848 310.239 95.3086C311.874 96.6446 313.485 98.0175 315.521 98.7875C316.326 98.4406 316.26 97.6917 316.338 97.0602C316.871 92.3303 318.744 87.7976 321.746 83.9716C325.859 78.6662 331.226 75.2504 337.811 73.8228C345.704 72.1019 352.879 73.6267 359.349 78.0838C387.323 97.3635 415.307 116.626 443.3 135.873C443.98 136.341 444.577 137.007 445.547 136.939C446.833 135.35 448.037 133.701 449.155 131.998Z" fill="#E6EAED"/>
<path d="M442.009 141.62C441.142 142.83 440.199 144 439.429 145.265C438.762 146.36 438.219 146.282 437.25 145.612C427.84 139.081 418.397 132.6 408.958 126.108C408.232 125.608 407.456 125.158 406.715 124.692C404.564 124.172 403.12 122.693 401.672 121.221C400.003 120.072 398.328 118.919 396.647 117.761C394.815 116.785 393.107 115.609 391.554 114.256C389.937 112.993 388.238 111.83 386.467 110.776C384.902 110.04 383.676 108.799 382.106 108.069C381.733 107.868 381.438 107.556 381.264 107.178C379.521 105.87 377.782 104.555 375.875 103.469C375.792 103.495 375.705 103.502 375.621 103.489C375.536 103.476 375.456 103.444 375.388 103.395C373.844 102.242 372.317 101.063 370.64 100.086C370.442 99.9286 370.307 99.7074 370.26 99.4606L364.047 95.1838C364.1 96.0225 364.127 96.5944 364.175 97.1626C364.993 107.055 357.72 116.599 347.691 118.85C340.919 120.371 334.973 118.783 329.485 114.999C301.009 95.3626 272.52 75.7462 244.016 56.1501C243.53 55.8155 243.031 55.4974 242.536 55.1716C243.521 53.3904 244.809 51.8105 246.11 50.2405C251.414 53.8911 256.717 57.5417 262.02 61.1923C267.877 65.224 273.741 69.2454 279.614 73.2564C281.308 74.4225 283.002 75.5887 284.696 76.7548L284.785 76.8165C286.428 77.9472 288.071 79.0779 289.713 80.2086C291.716 80.8594 293.467 82.0652 294.756 83.6797C296.468 84.8583 298.179 86.0364 299.89 87.214C301.954 87.9011 303.761 89.1509 305.096 90.8166C306.863 92.0325 308.629 93.2485 310.396 94.4644C312.261 95.7483 314.128 97.0336 315.997 98.3203L322.298 102.657C322.244 102.024 322.202 101.584 322.164 101.138C321.734 94.6847 323.757 89.012 328.643 84.4832C336.466 77.2366 347.444 76.5187 356.098 82.4757C384.732 102.199 413.369 121.914 442.009 141.62ZM331.022 90.5675C326.206 97.0669 327.568 106.285 334.012 110.768C340.872 115.54 350.259 114.062 355.246 107.441C360.198 100.868 358.76 91.6436 352.064 86.994C345.451 82.3983 335.86 84.0371 331.022 90.5675Z" fill="#102030"/>
<path d="M406.408 124.497C404.814 123.236 403.135 122.08 401.381 121.036C399.545 125.218 397.289 129.222 394.646 132.987C389.652 139.974 383.561 145.894 376.107 150.326C356.463 162.003 336.215 163.449 315.488 154.775C312.024 153.287 308.735 151.451 305.675 149.297C276.802 129.439 247.939 109.571 219.084 89.6913C217.42 88.546 217.786 88.5989 216.703 90.0944C215.877 91.2099 214.302 92.3174 214.497 93.4957C214.68 94.5848 216.475 95.1245 217.575 95.8819C246.191 115.592 274.811 135.293 303.436 154.985C303.715 155.177 303.982 155.38 304.254 155.577C314.311 161.828 325.327 165.514 337.384 166.056C357.944 166.994 375.777 160.416 390.884 146.323C397.58 140.066 402.641 132.701 406.408 124.497Z" fill="#102030"/>
<path d="M396.285 117.564C394.696 116.257 392.993 115.085 391.195 114.06C381.105 142.553 347.558 156.587 320.045 143.835C317.471 142.648 315.009 141.25 312.686 139.656C283.37 119.463 254.049 99.2794 224.722 79.1043C223.477 80.4237 222.559 81.9681 221.448 83.3577C221.126 83.758 221.208 84.029 221.604 84.2796C221.89 84.4578 222.16 84.6621 222.437 84.8526C251.105 104.587 279.661 124.478 308.486 144.002C327.397 156.811 347.792 158.048 368.818 147.669C381.574 141.374 390.407 131.313 395.877 118.492C396.011 118.18 396.154 117.877 396.285 117.564Z" fill="#26425A"/>
<path d="M289.53 80.2537C291.213 81.4122 292.896 82.5703 294.577 83.7278C296.641 78.103 299.532 72.9115 303.463 68.2787C311.418 58.9079 321.525 52.9848 333.751 50.6546C345.468 48.415 356.617 50.0664 367.157 55.3009C369.533 56.5226 371.813 57.9078 373.98 59.446C402.088 78.7946 430.188 98.1498 458.279 117.512C459.207 118.15 459.663 118.104 460.257 117.157C461.07 115.868 462.019 114.673 462.909 113.437C434.133 93.6288 405.359 73.8213 376.585 54.0148C366.036 46.7337 353.188 43.1902 340.168 43.9707C327.148 44.7513 314.736 49.809 304.986 58.3071C298.077 64.3139 292.77 71.849 289.53 80.2537Z" fill="#26425A"/>
<path d="M386.07 110.61C384.547 109.133 382.695 108.107 380.869 107.03C379.426 112.416 377.089 117.419 373.437 121.772C364.245 132.767 352.418 137.75 338.119 136.674C330.922 136.133 324.475 133.595 318.789 129.36C318.324 129.072 317.851 128.799 317.404 128.491C289.39 109.208 261.377 89.9242 233.364 70.6407C231.352 69.2561 231.838 69.4101 230.52 71.1715C229.738 72.2281 228.82 73.2041 228.257 74.409C228.742 74.7426 229.24 75.0577 229.727 75.3928C258.529 95.2194 287.331 115.046 316.132 134.871C324.111 140.361 333.79 143.107 343.683 142.688C353.575 142.268 363.135 138.707 370.896 132.549C378.248 126.704 383.205 119.327 386.07 110.61Z" fill="#81A8C7"/>
<path d="M299.746 87.2674L304.956 90.8721C309.265 75.6666 319.258 65.9389 335.126 62.3446C346.298 59.8155 356.712 62.0936 365.984 68.4518C394.371 87.9145 422.72 107.429 451.03 126.995C452.109 127.738 452.6 127.663 453.255 126.599C454.004 125.384 454.919 124.265 455.765 123.102C426.562 103 397.423 82.8085 368.136 62.8205C352.142 51.9029 329.077 53.4939 313.901 66.1793C307.058 71.901 302.374 78.9425 299.746 87.2674Z" fill="#81A8C7"/>
<path d="M375.435 103.287C373.725 101.752 371.766 100.541 369.837 99.2911C369.661 103.281 368.554 107.203 366.602 110.76C364.649 114.318 361.902 117.418 358.567 119.826C355.232 122.234 351.397 123.887 347.353 124.66C343.309 125.432 339.16 125.305 335.222 124.286C332.086 123.475 329.138 122.124 326.515 120.296C297.703 100.475 268.902 80.6376 240.112 60.7848C239.023 60.0348 238.525 60.1432 237.863 61.2149C237.107 62.4428 236.198 63.5809 235.355 64.7613C264.756 85.0001 294.158 105.239 323.56 125.479C336.243 134.21 354.71 132.375 365.872 121.318C370.921 116.398 374.27 110.083 375.435 103.287Z" fill="#E6EAED"/>
</g>
<g opacity="0.29">
<path d="M627.215 26.4217C598.788 6.85351 570.361 -12.7147 541.934 -32.2829C526.666 -42.8112 509.699 -47.155 490.915 -44.5199C476.199 -42.4559 463.375 -36.2963 452.504 -26.3062C445.519 -19.8871 440.184 -12.3467 436.31 -3.83886C436.304 -3.73615 436.321 -3.6338 436.359 -3.53861C436.397 -3.44341 436.456 -3.35756 436.531 -3.28676C438.004 -2.12787 439.425 -0.892257 441.237 -0.217737C441.928 -0.324328 442.05 -0.918629 442.266 -1.39817C444.238 -5.78559 446.724 -9.94525 449.674 -13.7937C455.054 -20.8545 461.928 -26.7269 469.823 -31.0064C481.32 -37.249 493.609 -39.7701 506.59 -38.7145C515.887 -37.9598 524.522 -35.196 532.534 -30.6433C534.457 -29.552 536.267 -28.3215 538.074 -27.0778C565.868 -7.9457 593.663 11.1878 621.461 30.3228C622.106 30.7671 622.676 31.398 623.596 31.3314L627.215 26.4217Z" fill="#102030"/>
<path d="M606.262 54.5618C605.776 54.227 605.281 53.9083 604.79 53.5707C577.088 34.5017 549.391 15.4295 521.698 -3.64596C516.47 -7.24475 510.879 -9.94088 504.342 -10.4206C492.398 -11.3129 482.431 -7.25702 474.556 1.8499C470.809 6.17983 468.525 11.2026 467.394 16.6893C467.344 16.9347 467.256 17.1726 467.186 17.4163C467.176 17.5846 467.233 17.7482 467.346 17.872C468.982 19.2081 470.593 20.581 472.628 21.351C473.434 21.0041 473.368 20.2552 473.445 19.6236C473.979 14.8937 475.851 10.3611 478.853 6.53512C482.967 1.22964 488.333 -2.1861 494.919 -3.61372C502.812 -5.3346 509.986 -3.8098 516.456 0.647301C544.431 19.927 572.414 39.1899 600.407 58.4362C601.087 58.9045 601.685 59.5701 602.655 59.5029C603.94 57.9138 605.144 56.2646 606.262 54.5618Z" fill="#E6EAED"/>
<path d="M599.117 64.184C598.249 65.3934 597.306 66.5637 596.537 67.8281C595.87 68.9238 595.326 68.8452 594.358 68.1753C584.947 61.6448 575.504 55.163 566.065 48.6716C565.339 48.1718 564.563 47.7219 563.822 47.2553C561.671 46.7356 560.228 45.2568 558.78 43.7842C557.111 42.6353 555.436 41.4821 553.754 40.3246C551.922 39.3482 550.214 38.1723 548.661 36.819C547.044 35.5561 545.345 34.3939 543.575 33.3394C542.009 32.6037 540.784 31.3621 539.214 30.6326C538.841 30.4317 538.546 30.1198 538.371 29.7417C536.628 28.4331 534.89 27.1183 532.982 26.0322C532.9 26.0581 532.813 26.065 532.728 26.0521C532.644 26.0393 532.564 26.0071 532.495 25.9582C530.952 24.8056 529.425 23.6268 527.748 22.6499C527.549 22.4921 527.415 22.2709 527.367 22.024L521.154 17.7473C521.207 18.586 521.234 19.1579 521.282 19.7261C522.1 29.6181 514.827 39.1621 504.799 41.4135C498.027 42.9341 492.08 41.3469 486.592 37.5629C458.116 17.9261 429.627 -1.69032 401.123 -21.2864C400.637 -21.621 400.139 -21.9391 399.643 -22.2649C400.629 -24.0461 401.916 -25.6261 403.218 -27.196C408.521 -23.5454 413.824 -19.8948 419.128 -16.2442C424.984 -12.2125 430.849 -8.19117 436.721 -4.18011C438.415 -3.01399 440.109 -1.84787 441.803 -0.681742L441.893 -0.619991C443.535 0.510711 445.178 1.6414 446.821 2.77211C448.823 3.42289 450.575 4.62871 451.863 6.24321C453.575 7.42178 455.287 8.59987 456.997 9.77747C459.062 10.4646 460.868 11.7144 462.204 13.3801C463.97 14.596 465.737 15.8119 467.503 17.0278C469.368 18.3117 471.235 19.5971 473.105 20.8838L479.405 25.2209C479.352 24.5871 479.309 24.1472 479.271 23.7012C478.841 17.2482 480.864 11.5755 485.751 7.04666C493.573 -0.199887 504.552 -0.917792 513.205 5.03921C541.84 24.7624 570.477 44.4773 599.117 64.184ZM488.129 13.131C483.314 19.6304 484.675 28.8485 491.12 33.3313C497.98 38.1035 507.366 36.6257 512.353 30.005C517.305 23.4316 515.867 14.2071 509.171 9.55749C502.558 4.96182 492.967 6.6006 488.129 13.131Z" fill="#102030"/>
<path d="M563.515 47.0601C561.921 45.7998 560.242 44.6439 558.488 43.5997C556.652 47.7815 554.396 51.7851 551.753 55.5508C546.759 62.5372 540.668 68.4572 533.214 72.8891C513.57 84.5662 493.322 86.0125 472.595 77.3388C469.131 75.85 465.842 74.0143 462.781 71.8609C433.909 52.0027 405.046 32.134 376.191 12.2548C374.527 11.1095 374.893 11.1624 373.81 12.6579C372.983 13.7734 371.409 14.8809 371.604 16.0592C371.786 17.1482 373.582 17.688 374.682 18.4453C403.298 38.1557 431.918 57.8569 460.543 77.5489C460.821 77.7407 461.089 77.9435 461.361 78.1401C471.418 84.3916 482.434 88.0771 494.491 88.6194C515.051 89.5575 532.884 82.9798 547.991 68.8861C554.686 62.6298 559.748 55.2641 563.515 47.0601Z" fill="#102030"/>
<path d="M553.392 40.1282C551.803 38.8213 550.1 37.6492 548.302 36.6243C538.212 65.1177 504.664 79.1517 477.151 66.3996C474.577 65.212 472.116 63.814 469.793 62.2203C440.477 42.0277 411.155 21.8439 381.828 1.66872C380.584 2.98819 379.666 4.53257 378.555 5.92215C378.233 6.32248 378.315 6.59347 378.711 6.84407C378.996 7.02225 379.266 7.22656 379.543 7.41709C408.212 27.1516 436.768 47.042 465.592 66.5665C484.503 79.3758 504.898 80.6126 525.925 70.2333C538.68 63.9384 547.514 53.8774 552.984 41.0566C553.117 40.7446 553.26 40.4417 553.392 40.1282Z" fill="#26425A"/>
<path d="M446.637 2.81722C448.32 3.97572 450.003 5.13374 451.684 6.29127C453.748 0.666428 456.639 -4.52499 460.57 -9.15785C468.525 -18.5286 478.632 -24.4517 490.858 -26.7819C502.575 -29.0215 513.724 -27.3702 524.264 -22.1356C526.64 -20.9139 528.92 -19.5287 531.087 -17.9905C559.195 1.35804 587.295 20.7133 615.386 40.0752C616.314 40.7134 616.77 40.6673 617.364 39.7207C618.177 38.4319 619.126 37.2364 620.016 36.0008C591.24 16.1923 562.466 -3.61521 533.692 -23.4218C523.143 -30.7029 510.295 -34.2463 497.275 -33.4658C484.255 -32.6852 471.843 -27.6275 462.093 -19.1294C455.184 -13.1226 449.877 -5.58757 446.637 2.81722Z" fill="#26425A"/>
<path d="M543.176 33.1747C541.654 31.6977 539.801 30.6711 537.976 29.5948C536.533 34.9804 534.196 39.9834 530.544 44.3362C521.352 55.3314 509.524 60.3141 495.225 59.2383C488.028 58.697 481.581 56.1593 475.895 51.9249C475.431 51.6362 474.957 51.3633 474.51 51.0555C446.497 31.772 418.484 12.4886 390.47 -6.79481C388.459 -8.17949 388.944 -8.02545 387.627 -6.26405C386.844 -5.20748 385.926 -4.23144 385.363 -3.02658C385.848 -2.69293 386.346 -2.37783 386.833 -2.04276C415.636 17.7839 444.437 37.61 473.238 57.4356C481.218 62.9255 490.896 65.6715 500.789 65.2521C510.682 64.8327 520.242 61.2711 528.002 55.1139C535.355 49.2684 540.311 41.8917 543.176 33.1747Z" fill="#81A8C7"/>
<path d="M456.853 9.8309L462.063 13.4356C466.371 -1.76994 476.365 -11.4976 492.232 -15.0919C503.405 -17.621 513.819 -15.3429 523.091 -8.98472C551.478 10.478 579.827 29.9923 608.137 49.5582C609.216 50.3011 609.707 50.2267 610.362 49.1628C611.111 47.9478 612.026 46.8284 612.872 45.665C583.669 25.563 554.53 5.37198 525.243 -14.6161C509.249 -25.5336 486.184 -23.9427 471.008 -11.2572C464.165 -5.53555 459.481 1.506 456.853 9.8309Z" fill="#81A8C7"/>
<path d="M532.541 25.8519C530.831 24.3169 528.872 23.1051 526.944 21.8556C526.767 25.8452 525.661 29.7671 523.708 33.3247C521.756 36.8823 519.008 39.9823 515.673 42.3904C512.338 44.7984 508.504 46.4513 504.459 47.224C500.415 47.9967 496.267 47.869 492.329 46.8505C489.193 46.0395 486.244 44.6883 483.622 42.8602C454.809 23.039 426.008 3.20204 397.219 -16.6508C396.129 -17.4007 395.631 -17.2924 394.969 -16.2207C394.213 -14.9927 393.304 -13.8546 392.461 -12.6742C421.862 7.56454 451.264 27.8038 480.667 48.0435C493.35 56.7741 511.817 54.9395 522.979 43.8827C528.027 38.9622 531.376 32.6473 532.541 25.8519Z" fill="#E6EAED"/>
</g>
</g>
</svg>
