<svg xmlns="http://www.w3.org/2000/svg" fill="none" viewBox="110.61759358288771 0 414.2406417112299 405.077064" style="max-height: 500px" width="414.2406417112299" height="405.077064">
<g opacity="0.32">
<g opacity="0.29">
<path fill="#102030" d="M419.831 246.188C444.511 262.778 469.19 279.369 493.87 295.96C507.141 304.865 515.693 316.882 518.892 332.335C521.398 344.441 519.908 356.247 514.63 367.631C511.238 374.947 506.426 381.294 500.378 386.778C500.293 386.812 500.202 386.829 500.111 386.826C500.02 386.824 499.931 386.803 499.849 386.764C498.449 385.947 496.998 385.191 495.907 383.968C495.798 383.397 496.263 383.131 496.605 382.823C499.731 380.015 502.517 376.871 504.908 373.454C509.303 367.21 512.266 360.139 513.593 352.73C515.535 341.936 514.114 331.598 509.481 321.749C506.164 314.695 501.346 308.738 495.2 303.784C493.727 302.595 492.168 301.534 490.6 300.48C466.47 284.259 442.338 268.037 418.205 251.814C417.644 251.437 416.949 251.173 416.739 250.434L419.831 246.188Z"/>
<path fill="#E6EAED" d="M402.174 270.693C402.596 270.976 403.007 271.272 403.433 271.558C427.483 287.725 451.535 303.888 475.588 320.046C480.127 323.098 484.01 326.693 486.299 331.667C490.496 340.753 489.955 349.718 484.556 358.504C481.99 362.684 478.418 365.919 474.123 368.386C473.931 368.496 473.756 368.633 473.571 368.758C473.432 368.815 473.278 368.817 473.141 368.764C471.544 367.871 469.923 367.006 468.687 365.636C468.747 364.906 469.397 364.742 469.907 364.499C473.737 362.718 477.014 359.946 479.371 356.495C482.653 351.747 483.981 346.564 483.284 341.001C482.457 334.332 479.104 329.16 473.484 325.385C449.178 309.065 424.883 292.733 400.599 276.389C400.009 275.992 399.276 275.717 399.053 274.939C400.02 273.475 401.062 272.058 402.174 270.693Z"/>
<path fill="#102030" d="M396.132 279.056C395.363 280.084 394.65 281.159 393.807 282.126C393.076 282.963 393.299 283.366 394.143 283.93C402.357 289.407 410.54 294.923 418.729 300.434C419.36 300.858 419.962 301.335 420.569 301.78C421.627 303.312 423.289 304.015 424.947 304.723C426.396 305.697 427.85 306.674 429.31 307.656C430.661 308.807 432.144 309.804 433.732 310.628C435.262 311.528 436.73 312.522 438.129 313.603C439.2 314.615 440.6 315.216 441.667 316.233C441.944 316.467 442.291 316.608 442.66 316.635C444.265 317.621 445.874 318.602 447.339 319.78C447.341 319.852 447.36 319.922 447.395 319.985C447.43 320.047 447.481 320.1 447.542 320.14C448.957 321.015 450.391 321.869 451.697 322.899C451.887 323.009 452.112 323.05 452.334 323.016L457.728 326.642C457.006 326.843 456.517 326.987 456.024 327.113C447.457 329.326 441.517 337.767 442.513 346.261C443.185 351.996 446.237 356.189 451.007 359.391C475.759 375.999 500.497 392.625 525.223 409.267C525.645 409.551 526.056 409.849 526.474 410.143C527.689 408.858 528.649 407.396 529.596 405.925C524.991 402.829 520.387 399.734 515.783 396.639C510.698 393.221 505.62 389.794 500.548 386.358C499.077 385.369 497.607 384.381 496.136 383.392L496.058 383.34C494.632 382.381 493.206 381.422 491.78 380.464C490.654 379.085 489.133 378.063 487.402 377.521C485.916 376.522 484.43 375.523 482.945 374.524C481.77 373.108 480.197 372.055 478.409 371.491C476.875 370.46 475.342 369.429 473.808 368.398C472.189 367.31 470.568 366.22 468.945 365.129L463.475 361.452C464.024 361.311 464.407 361.218 464.793 361.119C470.352 359.594 474.547 356.375 476.951 351.247C480.798 343.038 478.237 334.245 470.724 329.194C445.854 312.486 420.99 295.774 396.132 279.056ZM471.141 351.142C467.056 356.782 458.9 358.376 453.265 354.629C447.267 350.639 445.805 342.872 449.943 337.061C454.051 331.292 462.235 329.757 468.082 333.653C473.86 337.5 475.246 345.474 471.141 351.142Z"/>
<path fill="#102030" d="M420.821 301.964C422.342 302.847 423.8 303.827 425.186 304.898C422.193 307.54 419.472 310.459 417.062 313.612C412.619 319.533 409.39 326.005 407.807 333.114C403.638 351.846 408.26 368.1 421.543 381.81C423.796 384.091 426.291 386.133 428.987 387.906C454.039 404.761 479.098 421.607 504.163 438.442C505.608 439.413 505.458 439.142 504.511 440.42C503.809 441.389 503.331 442.939 502.282 443.127C501.312 443.298 500.34 442.05 499.385 441.408C474.531 424.711 449.683 408.007 424.842 391.298C424.6 391.135 424.352 390.984 424.108 390.828C415.942 384.765 409.661 377.212 405.727 367.938C399.007 352.127 399.403 336.281 406.916 320.401C410.254 313.359 414.998 307.276 420.821 301.964Z"/>
<path fill="#26425A" d="M429.579 307.882C431.138 308.748 432.617 309.742 433.999 310.853C412.911 326.963 410.767 357.25 429.442 375.092C431.185 376.763 433.072 378.285 435.085 379.642C460.547 396.748 486.003 413.86 511.453 430.98C510.701 432.334 509.665 433.497 508.815 434.767C508.571 435.134 508.319 435.148 507.994 434.911C507.761 434.739 507.511 434.587 507.271 434.425C482.382 417.694 457.393 401.095 432.636 384.181C416.393 373.084 409.469 357.488 412.146 338.049C413.769 326.257 419.695 316.446 428.915 308.469C429.139 308.275 429.353 308.076 429.579 307.882Z"/>
<path fill="#26425A" d="M491.794 380.619C490.333 379.636 488.872 378.655 487.412 377.673C491.554 374.436 495.093 370.678 497.861 366.267C503.459 357.343 505.532 347.728 503.969 337.494C502.475 327.683 497.869 319.439 490.42 312.705C488.706 311.2 486.882 309.816 484.961 308.564C460.559 292.16 436.152 275.764 411.743 259.376C410.938 258.835 410.845 258.465 411.471 257.727C412.322 256.719 413.055 255.632 413.839 254.58C438.822 271.374 463.804 288.167 488.784 304.96C497.959 311.111 504.649 320.138 507.747 330.547C510.845 340.956 510.165 352.123 505.82 362.2C502.754 369.337 497.938 375.661 491.794 380.619Z"/>
<path fill="#81A8C7" d="M438.381 313.866C440.064 314.631 441.463 315.784 442.896 316.901C438.777 319.583 435.237 322.854 432.624 326.966C426.015 337.327 425.23 348.014 430.26 358.888C432.792 364.361 436.788 368.672 441.995 371.898C442.372 372.178 442.738 372.47 443.127 372.731C467.447 389.08 491.768 405.429 516.088 421.778C517.835 422.952 517.565 422.616 516.461 424.155C515.797 425.072 515.24 426.071 514.388 426.859C513.967 426.576 513.558 426.277 513.135 425.993C488.129 409.184 463.124 392.374 438.12 375.566C431.195 370.908 426.09 364.13 423.59 356.271C421.09 348.413 421.333 339.908 424.28 332.062C427.083 324.625 431.866 318.621 438.381 313.866Z"/>
<path fill="#81A8C7" d="M482.94 374.651L478.402 371.616C489.965 363.86 495.276 353.238 493.727 339.791C492.634 330.322 487.712 322.834 479.683 317.416C455.103 300.826 430.491 284.281 405.847 267.781C404.91 267.151 404.831 266.747 405.538 265.927C406.346 264.991 407.025 263.952 407.76 262.955C433.114 279.998 458.523 296.967 483.805 314.109C497.613 323.47 502.925 341.968 496.618 357.498C493.773 364.5 489.194 370.195 482.94 374.651Z"/>
<path fill="#E6EAED" d="M447.616 320.071C449.402 320.966 450.988 322.149 452.597 323.297C449.287 324.586 446.303 326.582 443.87 329.136C441.437 331.689 439.619 334.732 438.552 338.035C437.486 341.338 437.2 344.814 437.716 348.2C438.231 351.586 439.535 354.794 441.529 357.58C443.117 359.8 445.105 361.716 447.401 363.24C472.405 380.059 497.419 396.865 522.443 413.656C523.389 414.292 523.441 414.713 522.73 415.54C521.914 416.485 521.217 417.525 520.466 418.525C494.941 401.365 469.415 384.206 443.888 367.046C432.877 359.644 429.096 344.671 435.188 332.752C437.877 327.384 442.229 322.943 447.616 320.071Z"/>
</g>
<g opacity="0.29">
<path fill="#102030" d="M284.401 313.608C309.081 330.198 333.761 346.789 358.441 363.379C371.711 372.285 380.263 384.302 383.462 399.755C385.968 411.86 384.479 423.667 379.2 435.051C375.809 442.366 370.996 448.713 364.948 454.198C364.864 454.232 364.773 454.249 364.681 454.246C364.59 454.244 364.501 454.222 364.42 454.184C363.019 453.367 361.568 452.611 360.477 451.388C360.368 450.817 360.833 450.551 361.175 450.243C364.301 447.435 367.088 444.291 369.478 440.873C373.873 434.629 376.837 427.559 378.164 420.15C380.105 409.356 378.684 399.018 374.051 389.169C370.734 382.115 365.916 376.158 359.771 371.204C358.297 370.015 356.738 368.954 355.17 367.9C331.04 351.679 306.909 335.457 282.775 319.233C282.215 318.857 281.519 318.593 281.31 317.854L284.401 313.608Z"/>
<path fill="#E6EAED" d="M266.744 338.112C267.166 338.396 267.577 338.691 268.003 338.978C292.053 355.145 316.105 371.308 340.158 387.466C344.697 390.518 348.58 394.113 350.87 399.087C355.066 408.173 354.525 417.138 349.126 425.924C346.56 430.104 342.989 433.339 338.694 435.806C338.501 435.916 338.326 436.053 338.141 436.178C338.003 436.235 337.848 436.237 337.711 436.184C336.114 435.291 334.493 434.426 333.258 433.056C333.318 432.326 333.967 432.162 334.477 431.919C338.307 430.138 341.584 427.366 343.941 423.914C347.223 419.167 348.552 413.984 347.855 408.421C347.028 401.752 343.674 396.58 338.054 392.805C313.748 376.485 289.453 360.153 265.17 343.809C264.579 343.412 263.846 343.137 263.623 342.359C264.591 340.895 265.632 339.478 266.744 338.112Z"/>
<path fill="#102030" d="M260.702 346.476C259.933 347.504 259.219 348.579 258.377 349.545C257.646 350.383 257.869 350.786 258.713 351.35C266.927 356.827 275.11 362.343 283.299 367.854C283.93 368.278 284.532 368.755 285.139 369.2C286.197 370.732 287.859 371.435 289.517 372.143C290.966 373.117 292.42 374.094 293.88 375.076C295.231 376.227 296.714 377.224 298.301 378.048C299.831 378.948 301.3 379.942 302.699 381.023C303.77 382.035 305.169 382.635 306.237 383.653C306.513 383.887 306.861 384.028 307.23 384.055C308.835 385.041 310.444 386.021 311.909 387.2C311.91 387.272 311.93 387.342 311.965 387.405C312 387.467 312.05 387.52 312.111 387.56C313.527 388.435 314.961 389.289 316.267 390.319C316.457 390.429 316.682 390.47 316.904 390.436L322.298 394.062C321.576 394.263 321.087 394.407 320.594 394.533C312.027 396.746 306.086 405.187 307.083 413.681C307.755 419.416 310.807 423.609 315.577 426.81C340.329 443.419 365.067 460.045 389.792 476.687C390.214 476.971 390.626 477.269 391.043 477.563C392.259 476.278 393.219 474.815 394.166 473.345C389.561 470.249 384.957 467.154 380.353 464.059C375.268 460.641 370.19 457.214 365.118 453.778C363.647 452.789 362.176 451.801 360.706 450.812L360.628 450.76C359.202 449.801 357.776 448.842 356.35 447.884C355.224 446.505 353.703 445.483 351.972 444.941C350.485 443.941 349 442.943 347.514 441.944C346.34 440.528 344.767 439.475 342.978 438.911C341.445 437.88 339.911 436.849 338.378 435.818C336.759 434.73 335.138 433.64 333.515 432.549L328.045 428.872C328.594 428.731 328.977 428.638 329.363 428.539C334.922 427.014 339.116 423.795 341.521 418.667C345.368 410.458 342.807 401.665 335.293 396.614C310.423 379.906 285.559 363.194 260.702 346.476ZM335.711 418.561C331.626 424.202 323.469 425.796 317.835 422.049C311.837 418.059 310.375 410.291 314.512 404.481C318.62 398.712 326.804 397.177 332.652 401.073C338.429 404.92 339.815 412.894 335.711 418.561Z"/>
<path fill="#102030" d="M285.392 369.382C286.913 370.265 288.371 371.245 289.756 372.316C286.764 374.957 284.042 377.877 281.633 381.03C277.189 386.951 273.96 393.423 272.377 400.532C268.208 419.264 272.83 435.518 286.114 449.228C288.367 451.509 290.861 453.551 293.558 455.324C318.61 472.179 343.669 489.025 368.734 505.86C370.178 506.831 370.028 506.56 369.081 507.838C368.38 508.807 367.901 510.357 366.853 510.545C365.883 510.716 364.91 509.468 363.955 508.826C339.101 492.129 314.254 475.425 289.413 458.716C289.171 458.553 288.923 458.402 288.679 458.246C280.513 452.183 274.232 444.63 270.298 435.356C263.577 419.545 263.974 403.699 271.487 387.819C274.825 380.777 279.569 374.694 285.392 369.382Z"/>
<path fill="#26425A" d="M294.15 375.302C295.709 376.168 297.187 377.162 298.569 378.273C277.481 394.383 275.337 424.67 294.013 442.512C295.756 444.182 297.643 445.704 299.655 447.062C325.117 464.168 350.573 481.28 376.024 498.399C375.272 499.754 374.236 500.917 373.386 502.187C373.142 502.554 372.89 502.568 372.564 502.331C372.332 502.159 372.082 502.007 371.842 501.845C346.952 485.113 321.964 468.515 297.206 451.601C280.964 440.504 274.039 424.908 276.717 405.469C278.339 393.677 284.265 383.866 293.486 375.889C293.71 375.695 293.924 375.496 294.15 375.302Z"/>
<path fill="#26425A" d="M356.364 448.039C354.903 447.056 353.442 446.075 351.982 445.093C356.124 441.856 359.663 438.098 362.431 433.687C368.029 424.763 370.102 415.148 368.539 404.914C367.046 395.103 362.439 386.859 354.991 380.125C353.277 378.62 351.452 377.236 349.532 375.984C325.129 359.58 300.723 343.184 276.313 326.796C275.509 326.255 275.416 325.884 276.042 325.147C276.893 324.139 277.626 323.052 278.41 322C303.393 338.794 328.374 355.587 353.355 372.38C362.53 378.531 369.22 387.558 372.317 397.967C375.415 408.376 374.735 419.543 370.39 429.62C367.324 436.757 362.508 443.08 356.364 448.039Z"/>
<path fill="#81A8C7" d="M302.951 381.284C304.634 382.049 306.033 383.202 307.466 384.319C303.347 387.001 299.807 390.272 297.194 394.384C290.585 404.745 289.8 415.432 294.83 426.306C297.362 431.779 301.358 436.09 306.565 439.316C306.942 439.596 307.308 439.888 307.696 440.149C332.017 456.498 356.338 472.847 380.658 489.196C382.405 490.37 382.135 490.034 381.031 491.573C380.367 492.49 379.81 493.489 378.958 494.277C378.537 493.994 378.128 493.695 377.705 493.411C352.699 476.602 327.694 459.792 302.69 442.984C295.765 438.326 290.66 431.548 288.16 423.689C285.66 415.831 285.903 407.326 288.85 399.48C291.653 392.043 296.436 386.039 302.951 381.284Z"/>
<path fill="#81A8C7" d="M347.51 442.071L342.972 439.036C354.536 431.28 359.846 420.658 358.297 407.21C357.204 397.742 352.282 390.254 344.253 384.836C319.674 368.246 295.062 351.701 270.417 335.201C269.48 334.571 269.402 334.166 270.109 333.347C270.916 332.41 271.595 331.372 272.331 330.375C297.684 347.418 323.094 364.387 348.375 381.529C362.183 390.89 367.496 409.388 361.189 424.917C358.343 431.92 353.764 437.615 347.51 442.071Z"/>
<path fill="#E6EAED" d="M312.187 387.491C313.974 388.386 315.559 389.569 317.168 390.717C313.858 392.006 310.874 394.002 308.441 396.556C306.008 399.109 304.19 402.152 303.123 405.455C302.057 408.758 301.771 412.234 302.287 415.62C302.802 419.006 304.106 422.214 306.1 425C307.688 427.219 309.676 429.136 311.972 430.66C336.976 447.479 361.99 464.285 387.014 481.076C387.96 481.712 388.012 482.133 387.301 482.96C386.485 483.905 385.788 484.945 385.037 485.944C359.512 468.785 333.986 451.626 308.459 434.466C297.448 427.064 293.667 412.091 299.76 400.171C302.448 394.803 306.8 390.363 312.187 387.491Z"/>
</g>
<g opacity="0.29">
<path fill="#102030" d="M113.293 36.3695C137.973 52.9601 162.653 69.5506 187.332 86.1412C200.603 95.0463 209.155 107.064 212.354 122.517C214.86 134.622 213.371 146.429 208.092 157.813C204.7 165.128 199.888 171.475 193.84 176.96C193.756 176.994 193.664 177.01 193.573 177.008C193.482 177.005 193.393 176.984 193.311 176.946C191.911 176.128 190.46 175.373 189.369 174.15C189.26 173.579 189.725 173.312 190.067 173.005C193.193 170.197 195.98 167.053 198.37 163.635C202.765 157.391 205.728 150.321 207.056 142.911C208.997 132.118 207.576 121.779 202.943 111.93C199.626 104.876 194.808 98.9198 188.662 93.9657C187.189 92.7766 185.63 91.7157 184.062 90.6612C159.932 74.4405 135.8 58.2184 111.667 41.9952C111.107 41.6185 110.411 41.3545 110.202 40.6159L113.293 36.3695Z"/>
<path fill="#E6EAED" d="M95.6359 60.8741C96.0581 61.1579 96.4693 61.4532 96.8951 61.7394C120.945 77.9067 144.997 94.0696 169.05 110.228C173.589 113.279 177.472 116.875 179.762 121.849C183.958 130.934 183.417 139.899 178.018 148.686C175.452 152.865 171.88 156.101 167.586 158.568C167.393 158.677 167.218 158.815 167.033 158.94C166.894 158.997 166.74 158.999 166.603 158.946C165.006 158.052 163.385 157.188 162.15 155.818C162.21 155.088 162.859 154.924 163.369 154.681C167.199 152.9 170.476 150.127 172.833 146.676C176.115 141.929 177.444 136.746 176.747 131.183C175.919 124.513 172.566 119.342 166.946 115.566C142.64 99.2466 118.345 82.9148 94.0615 66.571C93.4708 66.174 92.738 65.8987 92.5148 65.1207C93.4824 63.6568 94.5241 62.2395 95.6359 60.8741Z"/>
<path fill="#102030" d="M89.5939 69.2381C88.8255 70.2656 88.1117 71.3404 87.2689 72.3072C86.5383 73.1449 86.7613 73.5472 87.6049 74.1116C95.8192 79.5884 104.002 85.105 112.192 90.6157C112.822 91.0394 113.425 91.5163 114.031 91.9614C115.089 93.4938 116.751 94.1964 118.409 94.9043C119.858 95.8783 121.313 96.856 122.772 97.8374C124.123 98.9885 125.606 99.9855 127.194 100.81C128.724 101.71 130.193 102.704 131.591 103.784C132.663 104.797 134.062 105.397 135.129 106.415C135.406 106.649 135.753 106.789 136.122 106.817C137.727 107.803 139.336 108.783 140.801 109.962C140.803 110.034 140.822 110.104 140.857 110.166C140.893 110.229 140.943 110.282 141.004 110.322C142.42 111.196 143.853 112.051 145.159 113.081C145.349 113.19 145.575 113.232 145.796 113.198L151.19 116.824C150.468 117.024 149.979 117.168 149.487 117.294C140.919 119.508 134.979 127.949 135.975 136.442C136.648 142.178 139.699 146.371 144.469 149.572C169.221 166.181 193.959 182.806 218.685 199.449C219.107 199.733 219.518 200.031 219.936 200.324C221.152 199.04 222.111 197.577 223.058 196.106C218.454 193.011 213.849 189.916 209.245 186.821C204.16 183.403 199.082 179.976 194.01 176.54C192.54 175.551 191.069 174.562 189.598 173.574L189.52 173.521C188.094 172.563 186.668 171.604 185.242 170.645C184.116 169.267 182.596 168.245 180.864 167.702C179.378 166.703 177.892 165.704 176.407 164.706C175.233 163.289 173.659 162.237 171.871 161.673C170.337 160.642 168.804 159.611 167.27 158.58C165.651 157.492 164.03 156.402 162.407 155.311L156.937 151.634C157.486 151.493 157.869 151.399 158.256 151.3C163.814 149.775 168.009 146.557 170.414 141.429C174.261 133.22 171.699 124.426 164.186 119.376C139.316 102.668 114.452 85.9554 89.5939 69.2381ZM164.603 141.323C160.518 146.964 152.362 148.558 146.727 144.81C140.73 140.821 139.267 133.053 143.405 127.243C147.513 121.474 155.697 119.938 161.544 123.834C167.322 127.681 168.708 135.655 164.603 141.323Z"/>
<path fill="#102030" d="M114.285 92.1435C115.806 93.0266 117.264 94.0067 118.65 95.0774C115.657 97.7192 112.936 100.638 110.526 103.792C106.083 109.713 102.853 116.185 101.271 123.293C97.1016 142.026 101.723 158.28 115.007 171.99C117.26 174.27 119.754 176.313 122.451 178.086C147.503 194.941 172.562 211.786 197.627 228.622C199.072 229.593 198.922 229.322 197.974 230.6C197.273 231.568 196.795 233.119 195.746 233.307C194.776 233.478 193.804 232.229 192.849 231.587C167.995 214.89 143.147 198.187 118.306 181.477C118.064 181.315 117.816 181.164 117.572 181.008C109.406 174.945 103.125 167.392 99.1909 158.118C92.4707 142.307 92.8671 126.461 100.38 110.581C103.718 103.539 108.462 97.4559 114.285 92.1435Z"/>
<path fill="#26425A" d="M123.042 98.062C124.601 98.9281 126.079 99.9219 127.461 101.033C106.373 117.143 104.229 147.43 122.905 165.272C124.648 166.942 126.535 168.464 128.547 169.822C154.009 186.927 179.466 204.04 204.916 221.159C204.164 222.513 203.128 223.677 202.278 224.947C202.034 225.314 201.782 225.328 201.457 225.091C201.224 224.918 200.974 224.766 200.734 224.605C175.844 207.873 150.856 191.274 126.098 174.361C109.856 163.264 102.932 147.668 105.609 128.229C107.232 116.436 113.157 106.625 122.378 98.649C122.602 98.4544 122.816 98.2555 123.042 98.062Z"/>
<path fill="#26425A" d="M185.256 170.8C183.795 169.818 182.334 168.836 180.875 167.855C185.016 164.618 188.555 160.859 191.323 156.449C196.921 147.524 198.995 137.91 197.431 127.676C195.938 117.865 191.331 109.621 183.883 102.887C182.169 101.381 180.344 99.9974 178.424 98.7457C154.021 82.3414 129.615 65.9454 105.205 49.5577C104.401 49.0166 104.308 48.6462 104.934 47.9085C105.785 46.9008 106.518 45.814 107.302 44.7613C132.285 61.5555 157.266 78.3489 182.247 95.1416C191.422 101.293 198.112 110.32 201.21 120.729C204.307 131.138 203.627 142.304 199.282 152.381C196.216 159.518 191.4 165.842 185.256 170.8Z"/>
<path fill="#81A8C7" d="M131.844 104.048C133.527 104.812 134.926 105.965 136.359 107.083C132.239 109.764 128.7 113.035 126.087 117.147C119.478 127.508 118.692 138.196 123.723 149.07C126.254 154.543 130.251 158.854 135.457 162.08C135.834 162.36 136.201 162.651 136.589 162.912C160.91 179.261 185.23 195.611 209.551 211.96C211.297 213.134 211.027 212.798 209.924 214.337C209.26 215.254 208.703 216.253 207.85 217.041C207.429 216.758 207.02 216.459 206.598 216.175C181.592 199.365 156.587 182.556 131.582 165.747C124.657 161.09 119.553 154.311 117.053 146.453C114.553 138.594 114.795 130.089 117.743 122.244C120.545 114.807 125.329 108.802 131.844 104.048Z"/>
<path fill="#81A8C7" d="M176.402 164.833L171.864 161.798C183.428 154.042 188.738 143.42 187.189 129.972C186.097 120.504 181.174 113.016 173.145 107.597C148.566 91.0078 123.954 74.463 99.3095 57.9629C98.3726 57.333 98.2939 56.9282 99.0008 56.1084C99.8081 55.1722 100.487 54.1341 101.223 53.1367C126.576 70.1799 151.986 87.1483 177.267 104.29C191.075 113.651 196.388 132.15 190.081 147.679C187.236 154.682 182.656 160.376 176.402 164.833Z"/>
<path fill="#E6EAED" d="M141.08 110.253C142.866 111.148 144.452 112.331 146.06 113.479C142.751 114.767 139.767 116.764 137.334 119.317C134.901 121.871 133.082 124.914 132.016 128.217C130.95 131.52 130.663 134.996 131.179 138.382C131.695 141.768 132.999 144.976 134.992 147.762C136.58 149.981 138.568 151.898 140.864 153.422C165.869 170.241 190.883 187.046 215.907 203.838C216.852 204.474 216.905 204.895 216.193 205.722C215.377 206.667 214.681 207.706 213.93 208.706C188.404 191.547 162.878 174.388 137.351 157.228C126.34 149.826 122.559 134.852 128.652 122.933C131.34 117.565 135.692 113.124 141.08 110.253Z"/>
</g>
<g opacity="0.29">
<path fill="#102030" d="M198.161 235.509C222.646 252.364 247.132 269.219 271.618 286.074C284.769 295.143 299.384 298.885 315.564 296.615C328.24 294.837 339.285 289.531 348.649 280.926C354.666 275.397 359.261 268.902 362.598 261.574C362.604 261.485 362.589 261.397 362.556 261.315C362.523 261.233 362.473 261.159 362.407 261.098C361.139 260.1 359.915 259.036 358.354 258.455C357.759 258.547 357.654 259.058 357.468 259.472C355.769 263.251 353.628 266.834 351.087 270.149C346.453 276.23 340.532 281.289 333.732 284.975C323.828 290.352 313.243 292.524 302.062 291.614C294.054 290.964 286.616 288.584 279.714 284.662C278.058 283.722 276.499 282.662 274.943 281.591C251.003 265.111 227.061 248.63 203.117 232.148C202.561 231.766 202.07 231.222 201.277 231.28L198.161 235.509Z"/>
<path fill="#E6EAED" d="M216.208 211.27C216.627 211.558 217.054 211.833 217.476 212.124C241.337 228.549 265.195 244.977 289.048 261.408C293.552 264.508 298.367 266.83 303.998 267.243C314.287 268.012 322.871 264.518 329.655 256.674C332.882 252.944 334.85 248.618 335.824 243.892C335.867 243.68 335.942 243.475 336.003 243.266C336.012 243.121 335.962 242.98 335.865 242.873C334.456 241.722 333.068 240.54 331.315 239.876C330.621 240.175 330.678 240.82 330.612 241.364C330.152 245.438 328.539 249.343 325.953 252.638C322.41 257.208 317.787 260.15 312.115 261.38C305.316 262.862 299.137 261.549 293.563 257.71C269.467 241.103 245.364 224.511 221.252 207.933C220.666 207.529 220.151 206.956 219.316 207.014C218.208 208.383 217.171 209.803 216.208 211.27Z"/>
<path fill="#102030" d="M222.363 202.981C223.11 201.939 223.922 200.931 224.586 199.842C225.16 198.898 225.628 198.966 226.462 199.543C234.568 205.168 242.702 210.751 250.833 216.343C251.458 216.773 252.126 217.161 252.764 217.563C254.617 218.01 255.86 219.284 257.108 220.553C258.545 221.542 259.988 222.535 261.437 223.532C263.015 224.374 264.486 225.386 265.823 226.552C267.216 227.64 268.68 228.641 270.205 229.549C271.553 230.183 272.609 231.252 273.961 231.881C274.282 232.054 274.536 232.322 274.687 232.648C276.188 233.775 277.686 234.908 279.329 235.843C279.4 235.821 279.475 235.815 279.548 235.826C279.62 235.837 279.689 235.865 279.748 235.907C281.078 236.9 282.393 237.915 283.837 238.757C284.009 238.893 284.124 239.083 284.165 239.296L289.517 242.98C289.471 242.257 289.448 241.765 289.407 241.275C288.702 232.755 294.966 224.534 303.605 222.595C309.438 221.285 314.56 222.652 319.287 225.911C343.815 242.826 368.355 259.722 392.907 276.602C393.325 276.89 393.755 277.164 394.182 277.445C393.333 278.979 392.224 280.34 391.103 281.692C386.535 278.548 381.967 275.403 377.399 272.259C372.354 268.786 367.302 265.322 362.244 261.867C360.785 260.863 359.326 259.858 357.867 258.854L357.789 258.8C356.375 257.827 354.96 256.853 353.545 255.879C351.82 255.318 350.311 254.279 349.202 252.889C347.727 251.874 346.253 250.859 344.779 249.845C343.001 249.253 341.445 248.176 340.294 246.741C338.773 245.694 337.251 244.647 335.73 243.599C334.123 242.493 332.515 241.386 330.905 240.278L325.478 236.542C325.524 237.088 325.561 237.467 325.593 237.851C325.964 243.41 324.221 248.296 320.012 252.197C313.274 258.439 303.818 259.057 296.364 253.926C271.699 236.937 247.033 219.955 222.363 202.981ZM317.963 246.956C322.111 241.358 320.939 233.418 315.388 229.556C309.478 225.446 301.393 226.719 297.098 232.421C292.832 238.083 294.071 246.029 299.839 250.034C305.535 253.993 313.796 252.581 317.963 246.956Z"/>
<path fill="#102030" d="M253.029 217.731C254.402 218.816 255.848 219.812 257.359 220.711C258.94 217.109 260.883 213.661 263.16 210.417C267.461 204.399 272.708 199.3 279.129 195.483C296.049 185.424 313.49 184.179 331.344 191.65C334.328 192.932 337.16 194.513 339.796 196.368C364.666 213.473 389.528 230.587 414.382 247.711C415.815 248.697 415.5 248.652 416.433 247.363C417.145 246.403 418.501 245.449 418.333 244.434C418.176 243.496 416.629 243.031 415.682 242.378C391.033 225.401 366.381 208.431 341.725 191.469C341.485 191.304 341.254 191.129 341.02 190.96C332.357 185.575 322.869 182.4 312.483 181.933C294.774 181.125 279.413 186.791 266.4 198.931C260.633 204.32 256.274 210.664 253.029 217.731Z"/>
<path fill="#26425A" d="M261.748 223.703C263.117 224.829 264.583 225.839 266.132 226.722C274.823 202.179 303.72 190.09 327.418 201.074C329.635 202.097 331.756 203.302 333.757 204.674C359.008 222.067 384.265 239.453 409.526 256.831C410.598 255.694 411.388 254.364 412.346 253.167C412.623 252.822 412.552 252.589 412.211 252.373C411.965 252.22 411.733 252.044 411.494 251.88C386.8 234.881 362.203 217.748 337.375 200.931C321.086 189.897 303.518 188.832 285.407 197.772C274.42 203.194 266.811 211.86 262.099 222.904C261.984 223.173 261.861 223.433 261.748 223.703Z"/>
<path fill="#26425A" d="M353.702 255.84C352.253 254.842 350.804 253.845 349.355 252.848C347.577 257.693 345.087 262.164 341.701 266.155C334.849 274.227 326.143 279.329 315.612 281.336C305.519 283.265 295.916 281.842 286.837 277.334C284.792 276.281 282.828 275.088 280.961 273.763C256.75 257.097 232.546 240.425 208.349 223.748C207.55 223.198 207.157 223.238 206.645 224.053C205.945 225.163 205.127 226.193 204.361 227.257C229.147 244.319 253.932 261.381 278.717 278.441C287.804 284.713 298.87 287.765 310.085 287.093C321.3 286.421 331.991 282.064 340.389 274.744C346.341 269.57 350.912 263.08 353.702 255.84Z"/>
<path fill="#81A8C7" d="M270.547 229.694C271.859 230.966 273.454 231.85 275.027 232.777C276.269 228.138 278.283 223.829 281.428 220.08C289.346 210.609 299.533 206.317 311.85 207.244C318.049 207.71 323.603 209.896 328.5 213.543C328.901 213.792 329.308 214.027 329.693 214.292C353.823 230.902 377.952 247.512 402.082 264.122C403.815 265.315 403.396 265.182 404.531 263.665C405.205 262.755 405.996 261.914 406.481 260.876C406.063 260.589 405.634 260.317 405.215 260.029C380.405 242.951 355.597 225.873 330.789 208.796C323.916 204.068 315.579 201.702 307.058 202.064C298.537 202.425 290.302 205.493 283.617 210.796C277.284 215.831 273.015 222.185 270.547 229.694Z"/>
<path fill="#81A8C7" d="M344.903 249.799L340.415 246.694C336.704 259.791 328.096 268.17 314.428 271.266C304.805 273.445 295.835 271.483 287.848 266.006C263.397 249.241 238.978 232.433 214.593 215.579C213.663 214.939 213.241 215.004 212.676 215.92C212.031 216.967 211.243 217.931 210.515 218.933C235.668 236.248 260.768 253.64 285.995 270.857C299.771 280.26 319.638 278.89 332.71 267.963C338.605 263.035 342.639 256.97 344.903 249.799Z"/>
<path fill="#E6EAED" d="M279.707 236C281.181 237.322 282.868 238.366 284.529 239.442C284.681 236.006 285.634 232.628 287.316 229.563C288.998 226.499 291.365 223.829 294.237 221.755C297.11 219.68 300.413 218.257 303.896 217.591C307.38 216.925 310.953 217.035 314.345 217.913C317.046 218.611 319.586 219.775 321.845 221.35C346.663 238.423 371.471 255.51 396.269 272.61C397.207 273.256 397.636 273.163 398.207 272.24C398.858 271.182 399.641 270.202 400.367 269.185C375.042 251.752 349.716 234.319 324.39 216.885C313.466 209.365 297.559 210.945 287.945 220.469C283.596 224.707 280.711 230.147 279.707 236Z"/>
</g>
<g opacity="0.29">
<path fill="#102030" d="M62.8344 302.208C87.3203 319.063 111.806 335.918 136.292 352.774C149.443 361.842 164.057 365.584 180.238 363.314C192.913 361.536 203.959 356.231 213.323 347.625C219.34 342.096 223.935 335.601 227.272 328.273C227.277 328.185 227.263 328.096 227.23 328.014C227.197 327.932 227.146 327.858 227.081 327.798C225.813 326.799 224.589 325.735 223.028 325.154C222.433 325.246 222.328 325.758 222.141 326.171C220.443 329.95 218.302 333.533 215.761 336.848C211.127 342.93 205.206 347.988 198.405 351.674C188.502 357.051 177.917 359.223 166.735 358.314C158.728 357.663 151.29 355.283 144.388 351.361C142.732 350.421 141.173 349.361 139.617 348.29C115.676 331.811 91.7344 315.33 67.7907 298.848C67.2347 298.465 66.7436 297.921 65.9513 297.979L62.8344 302.208Z"/>
<path fill="#E6EAED" d="M80.8823 277.969C81.3012 278.257 81.7275 278.532 82.15 278.823C106.011 295.248 129.869 311.676 153.722 328.107C158.225 331.207 163.041 333.529 168.672 333.942C178.96 334.711 187.545 331.217 194.329 323.373C197.556 319.643 199.523 315.317 200.498 310.591C200.54 310.38 200.616 310.175 200.677 309.965C200.686 309.82 200.636 309.679 200.539 309.572C199.13 308.421 197.742 307.239 195.989 306.576C195.295 306.874 195.352 307.519 195.285 308.063C194.826 312.138 193.213 316.042 190.627 319.337C187.084 323.907 182.461 326.849 176.789 328.079C169.99 329.561 163.811 328.248 158.237 324.409C134.141 307.802 110.037 291.21 85.9255 274.632C85.3394 274.228 84.8249 273.655 83.9894 273.713C82.8821 275.082 81.8451 276.502 80.8823 277.969Z"/>
<path fill="#102030" d="M87.0369 269.682C87.7843 268.64 88.5963 267.632 89.2594 266.543C89.8338 265.599 90.3019 265.667 91.1362 266.244C99.2418 271.869 107.376 277.452 115.506 283.044C116.132 283.474 116.8 283.862 117.438 284.264C119.291 284.712 120.534 285.985 121.782 287.254C123.219 288.243 124.662 289.237 126.111 290.234C127.688 291.075 129.16 292.088 130.497 293.253C131.89 294.341 133.353 295.342 134.879 296.25C136.227 296.884 137.283 297.954 138.635 298.582C138.956 298.755 139.21 299.024 139.361 299.349C140.862 300.477 142.359 301.609 144.003 302.545C144.073 302.522 144.148 302.516 144.221 302.527C144.294 302.538 144.363 302.566 144.422 302.608C145.752 303.601 147.067 304.616 148.511 305.458C148.682 305.594 148.798 305.784 148.839 305.997L154.191 309.681C154.145 308.958 154.122 308.466 154.08 307.976C153.376 299.456 159.64 291.235 168.279 289.296C174.112 287.986 179.234 289.353 183.961 292.612C208.489 309.527 233.029 326.424 257.581 343.303C257.999 343.591 258.428 343.865 258.856 344.146C258.006 345.68 256.898 347.041 255.776 348.393C251.208 345.249 246.64 342.104 242.072 338.96C237.028 335.487 231.976 332.023 226.918 328.568C225.459 327.564 224 326.559 222.541 325.555L222.463 325.502C221.048 324.528 219.634 323.554 218.219 322.58C216.494 322.019 214.985 320.981 213.875 319.59C212.401 318.575 210.926 317.56 209.453 316.546C207.675 315.954 206.119 314.877 204.968 313.443C203.447 312.395 201.925 311.348 200.404 310.301C198.797 309.195 197.189 308.088 195.579 306.979L190.152 303.243C190.198 303.789 190.234 304.168 190.267 304.552C190.637 310.111 188.895 314.997 184.686 318.898C177.948 325.14 168.492 325.758 161.038 320.627C136.373 303.638 111.706 286.657 87.0369 269.682ZM182.637 313.657C186.785 308.059 185.612 300.119 180.061 296.257C174.152 292.147 166.067 293.42 161.772 299.123C157.506 304.785 158.745 312.73 164.513 316.735C170.209 320.694 178.47 319.282 182.637 313.657Z"/>
<path fill="#102030" d="M117.703 284.432C119.076 285.518 120.522 286.513 122.033 287.413C123.614 283.811 125.557 280.362 127.834 277.118C132.136 271.101 137.382 266.001 143.803 262.184C160.723 252.126 178.164 250.88 196.018 258.351C199.002 259.633 201.834 261.215 204.471 263.07C229.34 280.175 254.202 297.289 279.056 314.412C280.489 315.398 280.174 315.353 281.107 314.065C281.819 313.104 283.175 312.15 283.007 311.135C282.85 310.197 281.303 309.732 280.356 309.08C255.707 292.102 231.055 275.132 206.399 258.17C206.159 258.005 205.928 257.83 205.694 257.661C197.031 252.276 187.543 249.102 177.158 248.634C159.448 247.826 144.087 253.492 131.074 265.632C125.307 271.021 120.948 277.365 117.703 284.432Z"/>
<path fill="#26425A" d="M126.423 290.403C127.791 291.528 129.258 292.538 130.807 293.421C139.498 268.878 168.395 256.789 192.093 267.774C194.31 268.797 196.43 270.001 198.432 271.373C223.683 288.767 248.939 306.152 274.2 323.53C275.272 322.394 276.063 321.063 277.02 319.866C277.297 319.522 277.227 319.288 276.886 319.072C276.64 318.919 276.407 318.743 276.169 318.579C251.475 301.58 226.878 284.447 202.05 267.63C185.761 256.596 168.193 255.531 150.082 264.471C139.095 269.894 131.486 278.56 126.774 289.603C126.659 289.872 126.536 290.133 126.423 290.403Z"/>
<path fill="#26425A" d="M218.377 322.541C216.927 321.543 215.478 320.546 214.029 319.549C212.251 324.394 209.761 328.866 206.376 332.856C199.524 340.928 190.817 346.03 180.287 348.037C170.194 349.966 160.591 348.544 151.512 344.035C149.466 342.982 147.502 341.789 145.635 340.464C121.424 323.798 97.2199 307.126 73.0229 290.449C72.2243 289.899 71.831 289.939 71.3192 290.754C70.6189 291.864 69.8017 292.894 69.0349 293.958C93.8214 311.021 118.607 328.082 143.391 345.143C152.478 351.414 163.545 354.466 174.759 353.794C185.974 353.122 196.665 348.765 205.063 341.445C211.015 336.271 215.586 329.781 218.377 322.541Z"/>
<path fill="#81A8C7" d="M135.222 296.391C136.533 297.663 138.129 298.548 139.701 299.475C140.944 294.836 142.957 290.526 146.103 286.777C154.021 277.306 164.208 273.014 176.525 273.941C182.724 274.407 188.277 276.593 193.175 280.24C193.575 280.489 193.983 280.724 194.368 280.989C218.497 297.599 242.627 314.209 266.757 330.819C268.489 332.012 268.071 331.879 269.206 330.362C269.88 329.452 270.671 328.611 271.155 327.573C270.738 327.286 270.309 327.014 269.889 326.726C245.08 309.648 220.271 292.571 195.463 275.494C188.59 270.765 180.253 268.4 171.732 268.761C163.211 269.122 154.977 272.19 148.292 277.493C141.959 282.529 137.69 288.883 135.222 296.391Z"/>
<path fill="#81A8C7" d="M209.577 316.5L205.09 313.395C201.378 326.493 192.77 334.872 179.103 337.968C169.479 340.146 160.509 338.184 152.522 332.707C128.071 315.943 103.653 299.134 79.2671 282.281C78.3375 281.641 77.9153 281.705 77.3504 282.621C76.7054 283.668 75.9177 284.632 75.1888 285.634C100.343 302.949 125.443 320.341 150.669 337.558C164.446 346.962 184.312 345.591 197.385 334.664C203.279 329.736 207.314 323.671 209.577 316.5Z"/>
<path fill="#E6EAED" d="M144.382 302.699C145.855 304.022 147.543 305.065 149.204 306.142C149.356 302.705 150.309 299.327 151.991 296.263C153.672 293.198 156.039 290.528 158.912 288.454C161.784 286.38 165.087 284.956 168.571 284.29C172.054 283.625 175.627 283.735 179.02 284.612C181.721 285.311 184.261 286.474 186.52 288.049C211.338 305.122 236.146 322.209 260.943 339.309C261.882 339.955 262.311 339.862 262.881 338.939C263.532 337.881 264.315 336.901 265.042 335.884C239.717 318.451 214.391 301.018 189.065 283.584C178.14 276.064 162.233 277.644 152.619 287.168C148.271 291.407 145.386 296.846 144.382 302.699Z"/>
</g>
</g>
</svg>