<svg xmlns="http://www.w3.org/2000/svg" fill="none" viewBox="88.37209302325581 0 446.27906976744185 378.352" style="max-height: 500px" width="446.27906976744185" height="378.352">
<g opacity="0.32">
<g opacity="0.29">
<path fill="#102030" d="M212.758 155.461C184.105 136.2 155.453 116.939 126.801 97.6785C111.394 87.3401 101.466 73.3879 97.7524 55.4481C94.8431 41.3943 96.5719 27.6873 102.7 14.4709C106.638 5.97818 112.224 -1.39042 119.246 -7.75775C119.344 -7.79745 119.45 -7.81651 119.556 -7.81367C119.662 -7.81082 119.765 -7.78614 119.86 -7.74124C121.486 -6.79252 123.17 -5.91536 124.436 -4.49577C124.563 -3.83277 124.023 -3.5232 123.627 -3.16602C119.997 0.0934536 116.762 3.74366 113.987 7.71142C108.884 14.9605 105.444 23.1688 103.903 31.7709C101.649 44.3014 103.299 56.3041 108.678 67.7386C112.529 75.9278 118.122 82.8431 125.257 88.5946C126.968 89.9751 128.777 91.2068 130.598 92.4309C158.612 111.263 186.627 130.096 214.645 148.93C215.296 149.367 216.104 149.674 216.347 150.531L212.758 155.461Z"/>
<path fill="#E6EAED" d="M233.257 127.012C232.766 126.683 232.289 126.34 231.795 126.008C203.873 107.238 175.951 88.474 148.026 69.7147C142.757 66.1724 138.248 61.9982 135.59 56.2232C130.718 45.6757 131.347 35.2676 137.615 25.067C140.594 20.2148 144.74 16.4588 149.726 13.5945C149.95 13.4674 150.153 13.3079 150.367 13.1625C150.529 13.0966 150.708 13.0941 150.867 13.1554C152.721 14.1929 154.603 15.1962 156.037 16.7869C155.968 17.6344 155.213 17.8252 154.622 18.1067C150.175 20.175 146.371 23.3934 143.635 27.4001C139.824 32.9119 138.282 38.9291 139.091 45.3869C140.051 53.1303 143.944 59.1343 150.469 63.5173C178.687 82.4638 206.892 101.424 235.084 120.399C235.77 120.86 236.621 121.179 236.88 122.082C235.757 123.782 234.547 125.427 233.257 127.012Z"/>
<path fill="#102030" d="M240.271 117.3C241.163 116.107 241.992 114.86 242.97 113.737C243.818 112.765 243.56 112.298 242.58 111.642C233.044 105.284 223.544 98.8796 214.036 92.4819C213.304 91.99 212.605 91.4364 211.9 90.9197C210.672 89.1406 208.743 88.3249 206.818 87.5031C205.136 86.3722 203.447 85.2372 201.752 84.0978C200.184 82.7614 198.462 81.604 196.619 80.6473C194.843 79.6018 193.138 78.4483 191.514 77.1936C190.27 76.0183 188.646 75.3212 187.407 74.1397C187.086 73.8685 186.682 73.7051 186.254 73.6729C184.39 72.5285 182.523 71.3903 180.822 70.0217C180.82 69.9383 180.797 69.857 180.756 69.7844C180.716 69.7119 180.657 69.6501 180.587 69.6043C178.943 68.5887 177.279 67.5967 175.762 66.4012C175.541 66.2736 175.28 66.2255 175.023 66.2652L168.761 62.0556C169.598 61.8228 170.167 61.6555 170.738 61.5092C180.684 58.9395 187.581 49.1398 186.425 39.2793C185.644 32.621 182.101 27.7524 176.563 24.0361C147.828 4.75414 119.107 -14.5474 90.4024 -33.8685C89.9124 -34.1979 89.4345 -34.5438 88.95 -34.885C87.5384 -33.3934 86.4245 -31.6956 85.3253 -29.9879C90.6706 -26.3946 96.0159 -22.8013 101.361 -19.2081C107.264 -15.2397 113.16 -11.261 119.048 -7.27195C120.756 -6.12414 122.463 -4.97634 124.171 -3.82853L124.261 -3.76775C125.917 -2.6548 127.572 -1.54186 129.228 -0.428916C130.535 1.17145 132.3 2.35834 134.31 2.98766C136.036 4.14772 137.761 5.30731 139.485 6.46643C140.848 8.11098 142.675 9.33267 144.751 9.98788C146.532 11.1847 148.312 12.3815 150.092 13.5783C151.972 14.842 153.854 16.1072 155.738 17.3737L162.089 21.6427C161.451 21.8064 161.007 21.915 160.558 22.0297C154.104 23.8003 149.235 27.5366 146.443 33.4901C141.977 43.0202 144.951 53.2293 153.673 59.0927C182.546 78.4898 211.412 97.8923 240.271 117.3ZM153.189 33.6128C157.931 27.0639 167.4 25.2133 173.942 29.5642C180.905 34.1958 182.603 43.2139 177.799 49.9593C173.03 56.657 163.529 58.4398 156.74 53.9165C150.032 49.4504 148.423 40.1929 153.189 33.6128Z"/>
<path fill="#102030" d="M211.608 90.7059C209.842 89.6806 208.149 88.5428 206.541 87.2998C210.015 84.2327 213.174 80.8436 215.971 77.1827C221.13 70.3086 224.879 62.795 226.717 54.5423C231.557 32.795 226.191 13.9246 210.77 -1.99247C208.154 -4.63976 205.258 -7.01123 202.128 -9.06935C173.043 -28.6375 143.951 -48.1942 114.851 -67.7393C113.174 -68.8667 113.348 -68.5522 114.448 -70.0361C115.262 -71.1602 115.818 -72.9605 117.035 -73.1782C118.161 -73.3772 119.29 -71.9276 120.399 -71.1821C149.253 -51.7977 178.1 -32.4059 206.94 -13.0068C207.221 -12.818 207.508 -12.643 207.792 -12.4618C217.272 -5.42291 224.564 3.34589 229.131 14.1127C236.933 32.4684 236.473 50.8646 227.751 69.3013C223.875 77.476 218.368 84.5384 211.608 90.7059Z"/>
<path fill="#26425A" d="M201.44 83.8352C199.63 82.8297 197.914 81.676 196.31 80.3863C220.792 61.6832 223.281 26.521 201.599 5.80786C199.576 3.86834 197.385 2.10133 195.049 0.525435C165.488 -19.3336 135.935 -39.2005 106.388 -59.0752C107.261 -60.6473 108.464 -61.9979 109.451 -63.4723C109.734 -63.8985 110.027 -63.9147 110.404 -63.6393C110.674 -63.4393 110.964 -63.2628 111.243 -63.0753C140.139 -43.6507 169.149 -24.3803 197.892 -4.74409C216.749 8.13877 224.787 26.2447 221.679 48.813C219.795 62.5034 212.916 73.8935 202.211 83.1537C201.951 83.3797 201.703 83.6106 201.44 83.8352Z"/>
<path fill="#26425A" d="M129.212 -0.607357C130.908 0.532944 132.604 1.67277 134.299 2.81213C129.49 6.5701 125.382 10.9335 122.168 16.0539C115.669 26.415 113.262 37.5767 115.078 49.4585C116.811 60.8483 122.159 70.4189 130.807 78.2372C132.796 79.985 134.914 81.5916 137.144 83.0448C165.475 102.089 193.809 121.124 222.147 140.15C223.082 140.778 223.19 141.208 222.463 142.065C221.475 143.234 220.624 144.496 219.714 145.718C190.71 126.221 161.707 106.724 132.706 87.229C122.054 80.0873 114.287 69.6074 110.691 57.5233C107.094 45.4391 107.884 32.4751 112.928 20.7761C116.488 12.4904 122.079 5.14869 129.212 -0.607357Z"/>
<path fill="#81A8C7" d="M191.221 76.887C189.267 75.9993 187.643 74.6606 185.98 73.3634C190.762 70.2501 194.872 66.4526 197.905 61.6787C205.578 49.6502 206.49 37.2421 200.65 24.6182C197.711 18.2639 193.071 13.2595 187.026 9.51412C186.588 9.18893 186.163 8.85062 185.712 8.54759C157.477 -10.433 129.242 -29.4135 101.007 -48.3941C98.9794 -49.7571 99.2927 -49.3675 100.574 -51.1537C101.345 -52.2183 101.992 -53.3786 102.981 -54.2931C103.47 -53.9647 103.945 -53.6176 104.436 -53.2878C133.466 -33.7726 162.496 -14.2579 191.525 5.2564C199.565 10.6638 205.491 18.533 208.393 27.6564C211.295 36.7799 211.014 46.6535 207.592 55.7622C204.338 64.396 198.785 71.3667 191.221 76.887Z"/>
<path fill="#81A8C7" d="M139.491 6.32052L144.76 9.84426C131.335 18.8482 125.169 31.1802 126.968 46.7922C128.236 57.7844 133.951 66.4775 143.272 72.7683C171.808 92.0281 200.381 111.236 228.992 130.392C230.08 131.123 230.171 131.593 229.351 132.545C228.413 133.632 227.625 134.837 226.771 135.995C197.337 116.208 167.837 96.5089 138.487 76.6077C122.456 65.74 116.289 44.2637 123.611 26.2351C126.914 18.1057 132.231 11.4943 139.491 6.32052Z"/>
<path fill="#E6EAED" d="M180.5 69.6832C178.426 68.6442 176.585 67.2709 174.718 65.9384C178.56 64.4422 182.024 62.1243 184.849 59.16C187.674 56.1957 189.785 52.6627 191.023 48.8282C192.261 44.9937 192.593 40.9582 191.994 37.027C191.395 33.0958 189.882 29.3718 187.567 26.1368C185.724 23.5605 183.416 21.3357 180.75 19.5664C151.721 0.0400773 122.681 -19.4703 93.6294 -38.9648C92.5313 -39.703 92.4705 -40.1914 93.2967 -41.1515C94.2442 -42.2491 95.0526 -43.4557 95.9245 -44.6166C125.559 -24.6956 155.193 -4.77423 184.829 15.1476C197.612 23.7411 202.002 41.1243 194.928 54.9621C191.807 61.1941 186.754 66.3498 180.5 69.6832Z"/>
</g>
<g opacity="0.29">
<path fill="#102030" d="M369.986 77.1897C341.334 57.9288 312.682 38.6679 284.029 19.407C268.623 9.06863 258.694 -4.88356 254.981 -22.8234C252.072 -36.8772 253.8 -50.5842 259.929 -63.8006C263.866 -72.2933 269.453 -79.6619 276.474 -86.0292C276.573 -86.0689 276.678 -86.088 276.784 -86.0852C276.89 -86.0823 276.994 -86.0576 277.088 -86.0127C278.714 -85.064 280.398 -84.1868 281.665 -82.7673C281.792 -82.1043 281.251 -81.7947 280.855 -81.4375C277.225 -78.178 273.99 -74.5278 271.215 -70.5601C266.113 -63.311 262.673 -55.1027 261.132 -46.5006C258.878 -33.9701 260.527 -21.9674 265.906 -10.5329C269.757 -2.34366 275.351 4.57164 282.485 10.3231C284.196 11.7036 286.006 12.9353 287.827 14.1594C315.84 32.9911 343.856 51.8241 371.874 70.6585C372.524 71.0958 373.332 71.4023 373.575 72.2599L369.986 77.1897Z"/>
<path fill="#E6EAED" d="M390.485 48.7409C389.995 48.4115 389.517 48.0687 389.023 47.7364C361.102 28.9669 333.179 10.2025 305.255 -8.55678C299.985 -12.0991 295.477 -16.2732 292.819 -22.0482C287.947 -32.5958 288.575 -43.0039 294.843 -53.2045C297.822 -58.0567 301.968 -61.8127 306.955 -64.677C307.178 -64.8041 307.381 -64.9636 307.596 -65.109C307.757 -65.1749 307.936 -65.1774 308.095 -65.1161C309.949 -64.0786 311.831 -63.0753 313.266 -61.4846C313.196 -60.6371 312.442 -60.4463 311.85 -60.1648C307.404 -58.0965 303.599 -54.8781 300.863 -50.8714C297.053 -45.3596 295.51 -39.3424 296.319 -32.8846C297.279 -25.1412 301.173 -19.1372 307.697 -14.7542C335.916 4.19227 364.121 23.1527 392.313 42.1271C392.999 42.5881 393.849 42.9076 394.108 43.8109C392.985 45.5104 391.776 47.1558 390.485 48.7409Z"/>
<path fill="#102030" d="M397.5 39.0308C398.392 37.838 399.221 36.5901 400.199 35.4677C401.047 34.4952 400.788 34.0281 399.809 33.3729C390.273 27.0146 380.773 20.6101 371.265 14.2124C370.533 13.7205 369.834 13.1669 369.129 12.6501C367.901 10.871 365.972 10.0554 364.047 9.23356C362.365 8.10271 360.676 6.96762 358.981 5.82829C357.413 4.4919 355.691 3.33446 353.848 2.37779C352.072 1.33226 350.367 0.178787 348.743 -1.07592C347.499 -2.25126 345.875 -2.94828 344.636 -4.12985C344.314 -4.40106 343.911 -4.56446 343.482 -4.59661C341.619 -5.74106 339.752 -6.87928 338.051 -8.24783C338.049 -8.33126 338.026 -8.41257 337.985 -8.48512C337.944 -8.55766 337.886 -8.6194 337.815 -8.66528C336.172 -9.68082 334.508 -10.6729 332.991 -11.8683C332.77 -11.9959 332.509 -12.044 332.252 -12.0043L325.99 -16.2139C326.827 -16.4468 327.395 -16.614 327.967 -16.7603C337.913 -19.33 344.81 -29.1297 343.653 -38.9902C342.873 -45.6486 339.33 -50.5171 333.792 -54.2335C305.057 -73.5154 276.336 -92.8169 247.631 -112.138C247.141 -112.467 246.663 -112.813 246.179 -113.154C244.767 -111.663 243.653 -109.965 242.554 -108.257C247.9 -104.664 253.245 -101.071 258.59 -97.4776C264.493 -93.5093 270.389 -89.5306 276.277 -85.5415C277.985 -84.3937 279.692 -83.2459 281.4 -82.0981L281.49 -82.0373C283.146 -80.9243 284.801 -79.8114 286.457 -78.6984C287.764 -77.0981 289.529 -75.9112 291.539 -75.2819C293.265 -74.1218 294.99 -72.9622 296.714 -71.8031C298.077 -70.1586 299.904 -68.9369 301.98 -68.2817C303.761 -67.0848 305.541 -65.888 307.321 -64.6912C309.201 -63.4275 311.083 -62.1624 312.967 -60.8958L319.318 -56.6269C318.68 -56.4631 318.236 -56.3546 317.787 -56.2398C311.333 -54.4692 306.464 -50.7329 303.672 -44.7794C299.206 -35.2493 302.18 -25.0402 310.902 -19.1768C339.775 0.220257 368.641 19.6228 397.5 39.0308ZM310.418 -44.6567C315.16 -51.2056 324.629 -53.0562 331.17 -48.7053C338.134 -44.0738 339.832 -35.0556 335.028 -28.3102C330.259 -21.6125 320.758 -19.8298 313.969 -24.353C307.261 -28.8191 305.652 -38.0767 310.418 -44.6567Z"/>
<path fill="#102030" d="M368.835 12.4383C367.069 11.413 365.377 10.2752 363.769 9.0322C367.243 5.96517 370.402 2.576 373.199 -1.08487C378.358 -7.95893 382.107 -15.4725 383.945 -23.7253C388.785 -45.4726 383.419 -64.343 367.998 -80.2601C365.382 -82.9073 362.486 -85.2788 359.355 -87.3369C330.271 -106.905 301.178 -126.462 272.079 -146.007C270.402 -147.134 270.576 -146.82 271.676 -148.304C272.49 -149.428 273.046 -151.228 274.263 -151.446C275.389 -151.645 276.518 -150.195 277.627 -149.45C306.481 -130.065 335.328 -110.674 364.167 -91.2744C364.448 -91.0855 364.736 -90.9106 365.019 -90.7294C374.5 -83.6905 381.792 -74.9217 386.359 -64.1549C394.161 -45.7992 393.701 -27.403 384.979 -8.96628C381.103 -0.791545 375.596 6.27081 368.835 12.4383Z"/>
<path fill="#26425A" d="M358.668 5.56566C356.858 4.56015 355.142 3.40644 353.537 2.11672C378.019 -16.5863 380.508 -51.7485 358.827 -72.4617C356.804 -74.4012 354.613 -76.1682 352.277 -77.7441C322.716 -97.6031 293.163 -117.47 263.616 -137.345C264.489 -138.917 265.692 -140.267 266.678 -141.742C266.962 -142.168 267.255 -142.184 267.632 -141.909C267.902 -141.709 268.192 -141.532 268.471 -141.345C297.367 -121.92 326.377 -102.65 355.12 -83.0136C373.977 -70.1308 382.015 -52.0248 378.907 -29.4566C377.023 -15.7662 370.143 -4.376 359.439 4.88416C359.179 5.11014 358.93 5.34109 358.668 5.56566Z"/>
<path fill="#26425A" d="M286.44 -78.8788C288.137 -77.7385 289.832 -76.5987 291.527 -75.4594C286.718 -71.7014 282.61 -67.338 279.397 -62.2175C272.898 -51.8565 270.491 -40.6948 272.306 -28.813C274.039 -17.4232 279.387 -7.85258 288.035 -0.0342443C290.025 1.71351 292.143 3.32011 294.372 4.77329C322.703 23.8179 351.037 42.8529 379.375 61.8783C380.31 62.5065 380.418 62.9366 379.691 63.793C378.703 64.9628 377.852 66.2246 376.942 67.4468C347.938 47.9494 318.935 28.453 289.934 8.9575C279.282 1.81585 271.515 -8.66408 267.919 -20.7482C264.323 -32.8323 265.112 -45.7964 270.157 -57.4954C273.716 -65.7811 279.307 -73.1228 286.44 -78.8788Z"/>
<path fill="#81A8C7" d="M348.45 -1.38059C346.496 -2.26827 344.872 -3.60695 343.208 -4.90421C347.991 -8.0175 352.1 -11.815 355.134 -16.5888C362.807 -28.6174 363.718 -41.0254 357.878 -53.6494C354.939 -60.0036 350.299 -65.0081 344.255 -68.7535C343.817 -69.0786 343.392 -69.417 342.941 -69.72C314.706 -88.7006 286.471 -107.681 258.236 -126.662C256.208 -128.025 256.521 -127.635 257.802 -129.421C258.573 -130.486 259.22 -131.646 260.21 -132.561C260.699 -132.232 261.174 -131.885 261.664 -131.555C290.695 -112.04 319.725 -92.5255 348.754 -73.0112C356.793 -67.6038 362.719 -59.7346 365.622 -50.6111C368.524 -41.4877 368.243 -31.6141 364.821 -22.5054C361.567 -13.8716 356.014 -6.90084 348.45 -1.38059Z"/>
<path fill="#81A8C7" d="M296.719 -71.951L301.988 -68.4272C288.563 -59.4232 282.398 -47.0913 284.196 -31.4793C285.465 -20.4871 291.179 -11.794 300.501 -5.50322C329.036 13.7566 357.609 32.9644 386.22 52.1203C387.308 52.8515 387.399 53.3216 386.579 54.2733C385.642 55.3601 384.853 56.5654 383.999 57.7233C354.565 37.9369 325.065 18.2374 295.715 -1.66381C279.684 -12.5315 273.517 -34.0078 280.839 -52.0363C284.142 -60.1658 289.459 -66.7772 296.719 -71.951Z"/>
</g>
<g opacity="0.29">
<path fill="#102030" d="M568.635 399.049C539.983 379.788 511.33 360.527 482.678 341.266C467.272 330.928 457.343 316.976 453.63 299.036C450.72 284.982 452.449 271.275 458.577 258.059C462.515 249.566 468.101 242.197 475.123 235.83C475.221 235.79 475.327 235.771 475.433 235.774C475.539 235.777 475.642 235.802 475.737 235.847C477.363 236.795 479.047 237.673 480.313 239.092C480.441 239.755 479.9 240.065 479.504 240.422C475.874 243.681 472.639 247.332 469.864 251.299C464.762 258.548 461.321 266.757 459.78 275.359C457.526 287.889 459.176 299.892 464.555 311.326C468.406 319.516 474 326.431 481.134 332.182C482.845 333.563 484.654 334.795 486.475 336.019C514.489 354.85 542.505 373.683 570.522 392.518C571.173 392.955 571.981 393.262 572.224 394.119L568.635 399.049Z"/>
<path fill="#E6EAED" d="M589.134 370.6C588.644 370.271 588.166 369.928 587.672 369.596C559.751 350.826 531.828 332.062 503.903 313.303C498.634 309.76 494.126 305.586 491.468 299.811C486.596 289.264 487.224 278.855 493.492 268.655C496.471 263.803 500.617 260.047 505.603 257.182C505.827 257.055 506.03 256.896 506.245 256.75C506.406 256.685 506.585 256.682 506.744 256.743C508.598 257.781 510.48 258.784 511.914 260.375C511.845 261.222 511.09 261.413 510.499 261.695C506.053 263.763 502.248 266.981 499.512 270.988C495.702 276.5 494.159 282.517 494.968 288.975C495.928 296.718 499.821 302.722 506.346 307.105C534.564 326.052 562.77 345.012 590.962 363.986C591.647 364.447 592.498 364.767 592.757 365.67C591.634 367.37 590.425 369.015 589.134 370.6Z"/>
<path fill="#102030" d="M596.148 360.89C597.04 359.697 597.869 358.45 598.848 357.327C599.696 356.355 599.437 355.887 598.457 355.232C588.921 348.874 579.421 342.469 569.913 336.072C569.182 335.58 568.482 335.026 567.778 334.51C566.549 332.73 564.62 331.915 562.695 331.093C561.013 329.962 559.324 328.827 557.629 327.688C556.061 326.351 554.34 325.194 552.497 324.237C550.72 323.192 549.015 322.038 547.391 320.783C546.147 319.608 544.523 318.911 543.284 317.73C542.963 317.458 542.559 317.295 542.131 317.263C540.268 316.118 538.4 314.98 536.699 313.612C536.697 313.528 536.675 313.447 536.634 313.374C536.593 313.302 536.535 313.24 536.464 313.194C534.82 312.179 533.156 311.187 531.639 309.991C531.419 309.863 531.157 309.815 530.9 309.855L524.638 305.645C525.476 305.413 526.044 305.245 526.616 305.099C536.562 302.529 543.458 292.73 542.302 282.869C541.521 276.211 537.978 271.342 532.44 267.626C503.705 248.344 474.985 229.042 446.28 209.721C445.79 209.392 445.312 209.046 444.827 208.705C443.416 210.196 442.302 211.894 441.203 213.602C446.548 217.195 451.893 220.788 457.238 224.382C463.142 228.35 469.037 232.329 474.926 236.318C476.633 237.466 478.34 238.614 480.048 239.761L480.138 239.822C481.794 240.935 483.45 242.048 485.105 243.161C486.412 244.761 488.178 245.948 490.188 246.578C491.913 247.738 493.638 248.897 495.363 250.056C496.726 251.701 498.553 252.923 500.628 253.578C502.409 254.775 504.189 255.971 505.97 257.168C507.849 258.432 509.731 259.697 511.616 260.964L517.966 265.233C517.328 265.396 516.884 265.505 516.435 265.62C509.982 267.39 505.112 271.126 502.32 277.08C497.854 286.61 500.828 296.819 509.55 302.683C538.424 322.08 567.289 341.482 596.148 360.89ZM509.066 277.203C513.809 270.654 523.278 268.803 529.819 273.154C536.782 277.786 538.48 286.804 533.676 293.549C528.907 300.247 519.406 302.03 512.617 297.506C505.91 293.04 504.301 283.783 509.066 277.203Z"/>
<path fill="#102030" d="M567.483 334.298C565.717 333.272 564.024 332.135 562.416 330.892C565.89 327.825 569.05 324.435 571.847 320.775C577.006 313.9 580.755 306.387 582.592 298.134C587.432 276.387 582.066 257.516 566.645 241.599C564.029 238.952 561.133 236.581 558.003 234.522C528.918 214.954 499.826 195.398 470.726 175.853C469.049 174.725 469.224 175.04 470.323 173.556C471.137 172.432 471.693 170.631 472.91 170.414C474.036 170.215 475.165 171.664 476.274 172.41C505.129 191.794 533.975 211.186 562.815 230.585C563.096 230.774 563.384 230.949 563.667 231.13C573.147 238.169 580.439 246.938 585.007 257.704C592.809 276.06 592.348 294.456 583.626 312.893C579.751 321.068 574.243 328.13 567.483 334.298Z"/>
<path fill="#26425A" d="M557.317 327.427C555.506 326.421 553.79 325.268 552.186 323.978C576.668 305.275 579.157 270.113 557.475 249.4C555.452 247.46 553.261 245.693 550.925 244.117C521.365 224.258 491.811 204.391 462.264 184.517C463.138 182.945 464.34 181.594 465.327 180.12C465.611 179.693 465.903 179.677 466.281 179.952C466.551 180.152 466.841 180.329 467.12 180.516C496.015 199.941 525.026 219.212 553.768 238.848C572.625 251.731 580.664 269.836 577.556 292.405C575.672 306.095 568.792 317.485 558.088 326.745C557.827 326.971 557.579 327.202 557.317 327.427Z"/>
<path fill="#26425A" d="M485.089 242.981C486.785 244.121 488.481 245.261 490.175 246.4C485.367 250.158 481.259 254.521 478.045 259.642C471.546 270.003 469.139 281.165 470.954 293.046C472.688 304.436 478.035 314.007 486.683 321.825C488.673 323.573 490.791 325.179 493.021 326.633C521.351 345.677 549.686 364.712 578.024 383.738C578.958 384.366 579.066 384.796 578.339 385.652C577.351 386.822 576.5 388.084 575.59 389.306C546.586 369.809 517.584 350.312 488.582 330.817C477.931 323.675 470.164 313.195 466.567 301.111C462.971 289.027 463.76 276.063 468.805 264.364C472.365 256.078 477.955 248.737 485.089 242.981Z"/>
<path fill="#81A8C7" d="M547.098 320.479C545.144 319.591 543.52 318.252 541.856 316.955C546.639 313.842 550.748 310.044 553.782 305.271C561.454 293.242 562.366 280.834 556.526 268.21C553.587 261.856 548.947 256.851 542.903 253.106C542.465 252.781 542.04 252.442 541.589 252.139C513.354 233.159 485.119 214.178 456.883 195.198C454.856 193.835 455.169 194.224 456.45 192.438C457.221 191.373 457.868 190.213 458.858 189.299C459.347 189.627 459.822 189.974 460.312 190.304C489.343 209.819 518.372 229.334 547.402 248.848C555.441 254.256 561.367 262.125 564.27 271.248C567.172 280.372 566.891 290.245 563.469 299.354C560.215 307.988 554.662 314.959 547.098 320.479Z"/>
<path fill="#81A8C7" d="M495.367 249.908L500.636 253.432C487.211 262.436 481.046 274.768 482.845 290.38C484.113 301.372 489.827 310.065 499.149 316.356C527.685 335.616 556.258 354.824 584.869 373.98C585.956 374.711 586.048 375.181 585.227 376.133C584.29 377.22 583.502 378.425 582.647 379.583C553.214 359.796 523.714 340.097 494.363 320.196C478.333 309.328 472.165 287.852 479.487 269.823C482.791 261.694 488.107 255.082 495.367 249.908Z"/>
<path fill="#E6EAED" d="M536.376 313.273C534.302 312.234 532.461 310.861 530.594 309.528C534.436 308.032 537.9 305.714 540.725 302.75C543.549 299.786 545.661 296.253 546.898 292.418C548.136 288.584 548.468 284.548 547.87 280.617C547.271 276.686 545.757 272.962 543.443 269.727C541.6 267.15 539.291 264.926 536.626 263.156C507.597 243.63 478.557 224.12 449.505 204.625C448.407 203.887 448.346 203.398 449.172 202.438C450.12 201.341 450.928 200.134 451.8 198.973C481.434 218.894 511.069 238.816 540.704 258.737C553.488 267.331 557.877 284.714 550.804 298.552C547.683 304.784 542.63 309.94 536.376 313.273Z"/>
</g>
<g opacity="0.29">
<path fill="#102030" d="M470.107 167.858C441.68 148.29 413.253 128.722 384.826 109.154C369.559 98.6254 352.592 94.2815 333.807 96.9166C319.091 98.9807 306.268 105.14 295.397 115.13C288.411 121.549 283.077 129.09 279.202 137.598C279.196 137.7 279.213 137.803 279.251 137.898C279.29 137.993 279.348 138.079 279.424 138.15C280.896 139.309 282.318 140.544 284.13 141.219C284.821 141.112 284.942 140.518 285.159 140.038C287.131 135.651 289.617 131.491 292.567 127.643C297.946 120.582 304.82 114.71 312.716 110.43C324.213 104.188 336.501 101.666 349.483 102.722C358.78 103.477 367.414 106.241 375.427 110.793C377.35 111.884 379.16 113.115 380.967 114.359C408.76 133.491 436.556 152.624 464.353 171.759C464.999 172.204 465.569 172.835 466.489 172.768L470.107 167.858Z"/>
<path fill="#E6EAED" d="M449.155 195.998C448.668 195.664 448.173 195.345 447.683 195.007C419.981 175.938 392.284 156.866 364.591 137.791C359.363 134.192 353.772 131.496 347.235 131.016C335.29 130.124 325.324 134.18 317.449 143.286C313.702 147.616 311.417 152.639 310.286 158.126C310.237 158.371 310.149 158.609 310.079 158.853C310.068 159.021 310.126 159.185 310.239 159.309C311.874 160.645 313.485 162.017 315.521 162.788C316.326 162.441 316.26 161.692 316.338 161.06C316.871 156.33 318.744 151.798 321.746 147.972C325.859 142.666 331.226 139.25 337.811 137.823C345.704 136.102 352.879 137.627 359.349 142.084C387.323 161.363 415.307 180.626 443.3 199.873C443.98 200.341 444.577 201.007 445.547 200.939C446.833 199.35 448.037 197.701 449.155 195.998Z"/>
<path fill="#102030" d="M442.009 205.621C441.142 206.831 440.199 208.001 439.429 209.266C438.762 210.361 438.219 210.283 437.25 209.613C427.84 203.082 418.397 196.6 408.958 190.109C408.232 189.609 407.456 189.159 406.715 188.693C404.564 188.173 403.12 186.694 401.672 185.222C400.003 184.073 398.328 182.92 396.647 181.762C394.815 180.786 393.107 179.61 391.554 178.257C389.937 176.994 388.238 175.831 386.467 174.777C384.902 174.041 383.676 172.8 382.106 172.07C381.733 171.869 381.438 171.557 381.264 171.179C379.521 169.871 377.782 168.556 375.875 167.47C375.792 167.496 375.705 167.502 375.621 167.49C375.536 167.477 375.456 167.445 375.388 167.396C373.844 166.243 372.317 165.064 370.64 164.087C370.442 163.93 370.307 163.708 370.26 163.462L364.047 159.185C364.1 160.023 364.127 160.595 364.175 161.164C364.993 171.056 357.72 180.6 347.691 182.851C340.919 184.372 334.973 182.784 329.485 179C301.009 159.364 272.52 139.747 244.016 120.151C243.53 119.817 243.031 119.498 242.536 119.173C243.521 117.391 244.809 115.811 246.11 114.242C251.414 117.892 256.717 121.543 262.02 125.193C267.877 129.225 273.741 133.246 279.614 137.257C281.308 138.424 283.002 139.59 284.696 140.756L284.785 140.818C286.428 141.948 288.071 143.079 289.713 144.21C291.716 144.86 293.467 146.066 294.756 147.681C296.468 148.859 298.179 150.037 299.89 151.215C301.954 151.902 303.761 153.152 305.096 154.818C306.863 156.034 308.629 157.249 310.396 158.465C312.261 159.749 314.128 161.035 315.997 162.321L322.298 166.658C322.244 166.025 322.202 165.585 322.164 165.139C321.734 158.686 323.757 153.013 328.643 148.484C336.466 141.238 347.444 140.52 356.098 146.477C384.732 166.2 413.369 185.915 442.009 205.621ZM331.022 154.568C326.206 161.068 327.568 170.286 334.012 174.769C340.872 179.541 350.259 178.063 355.246 171.442C360.198 164.869 358.76 155.645 352.064 150.995C345.451 146.399 335.86 148.038 331.022 154.568Z"/>
<path fill="#102030" d="M406.408 188.498C404.814 187.237 403.135 186.081 401.381 185.037C399.545 189.219 397.289 193.223 394.646 196.988C389.652 203.975 383.561 209.895 376.107 214.327C356.463 226.004 336.215 227.45 315.488 218.776C312.024 217.287 308.735 215.452 305.675 213.298C276.802 193.44 247.939 173.572 219.084 153.692C217.42 152.547 217.786 152.6 216.703 154.095C215.877 155.211 214.302 156.318 214.497 157.497C214.68 158.586 216.475 159.125 217.575 159.883C246.191 179.593 274.811 199.294 303.436 218.986C303.715 219.178 303.982 219.381 304.254 219.578C314.311 225.829 325.327 229.515 337.384 230.057C357.944 230.995 375.777 224.417 390.884 210.324C397.58 204.067 402.641 196.702 406.408 188.498Z"/>
<path fill="#26425A" d="M396.285 181.565C394.696 180.258 392.993 179.086 391.195 178.061C381.105 206.554 347.558 220.588 320.045 207.836C317.471 206.648 315.009 205.25 312.686 203.657C283.37 183.464 254.049 163.28 224.722 143.105C223.477 144.425 222.559 145.969 221.448 147.359C221.126 147.759 221.208 148.03 221.604 148.281C221.89 148.459 222.16 148.663 222.437 148.854C251.105 168.588 279.661 188.479 308.486 208.003C327.397 220.812 347.792 222.049 368.818 211.67C381.574 205.375 390.407 195.314 395.877 182.493C396.011 182.181 396.154 181.878 396.285 181.565Z"/>
<path fill="#26425A" d="M289.53 144.254C291.213 145.412 292.896 146.57 294.577 147.728C296.641 142.103 299.532 136.912 303.463 132.279C311.418 122.908 321.525 116.985 333.751 114.655C345.468 112.415 356.617 114.066 367.157 119.301C369.533 120.523 371.813 121.908 373.98 123.446C402.088 142.795 430.188 162.15 458.279 181.512C459.207 182.15 459.663 182.104 460.257 181.157C461.07 179.868 462.019 178.673 462.909 177.437C434.133 157.629 405.359 137.821 376.585 118.015C366.036 110.734 353.188 107.19 340.168 107.971C327.148 108.751 314.736 113.809 304.986 122.307C298.077 128.314 292.77 135.849 289.53 144.254Z"/>
<path fill="#81A8C7" d="M386.07 174.611C384.547 173.134 382.695 172.108 380.869 171.031C379.426 176.417 377.089 181.42 373.437 185.773C364.245 196.768 352.418 201.751 338.119 200.675C330.922 200.133 324.475 197.596 318.789 193.361C318.324 193.073 317.851 192.8 317.404 192.492C289.39 173.209 261.377 153.925 233.364 134.642C231.352 133.257 231.838 133.411 230.52 135.172C229.738 136.229 228.82 137.205 228.257 138.41C228.742 138.744 229.24 139.059 229.727 139.394C258.529 159.22 287.331 179.046 316.132 198.872C324.111 204.362 333.79 207.108 343.683 206.689C353.575 206.269 363.135 202.708 370.896 196.55C378.248 190.705 383.205 183.328 386.07 174.611Z"/>
<path fill="#81A8C7" d="M299.746 151.267L304.956 154.872C309.265 139.667 319.258 129.939 335.126 126.345C346.298 123.816 356.712 126.094 365.984 132.452C394.371 151.915 422.72 171.429 451.03 190.995C452.109 191.738 452.6 191.663 453.255 190.599C454.004 189.384 454.919 188.265 455.765 187.102C426.562 167 397.423 146.809 368.136 126.82C352.142 115.903 329.077 117.494 313.901 130.179C307.058 135.901 302.374 142.943 299.746 151.267Z"/>
<path fill="#E6EAED" d="M375.435 167.288C373.725 165.753 371.766 164.542 369.837 163.292C369.661 167.282 368.554 171.204 366.602 174.761C364.649 178.319 361.902 181.419 358.567 183.827C355.232 186.235 351.397 187.888 347.353 188.661C343.309 189.433 339.16 189.306 335.222 188.287C332.086 187.476 329.138 186.125 326.515 184.297C297.703 164.476 268.902 144.639 240.112 124.786C239.023 124.036 238.525 124.144 237.863 125.216C237.107 126.444 236.198 127.582 235.355 128.762C264.756 149.001 294.158 169.24 323.56 189.48C336.243 198.211 354.71 196.376 365.872 185.319C370.921 180.399 374.27 174.084 375.435 167.288Z"/>
</g>
<g opacity="0.29">
<path fill="#102030" d="M627.215 90.4208C598.788 70.8525 570.361 51.2843 541.934 31.7161C526.666 21.1879 509.699 16.844 490.915 19.4791C476.199 21.5432 463.375 27.7027 452.504 37.6929C445.519 44.112 440.185 51.6523 436.31 60.1602C436.304 60.2629 436.321 60.3652 436.359 60.4604C436.397 60.5556 436.456 60.6415 436.532 60.7123C438.004 61.8712 439.425 63.1068 441.237 63.7813C441.928 63.6747 442.05 63.0804 442.267 62.6009C444.238 58.2134 446.724 54.0538 449.675 50.2053C455.054 43.1445 461.928 37.2721 469.823 32.9926C481.32 26.75 493.609 24.2289 506.59 25.2845C515.887 26.0393 524.522 28.803 532.535 33.3557C534.457 34.447 536.267 35.6776 538.074 36.9212C565.868 56.0533 593.663 75.1869 621.461 94.3218C622.106 94.7661 622.676 95.397 623.596 95.3304L627.215 90.4208Z"/>
<path fill="#E6EAED" d="M606.262 118.561C605.776 118.226 605.281 117.907 604.79 117.57C577.089 98.5007 549.391 79.4285 521.698 60.3531C516.47 56.7543 510.879 54.0581 504.342 53.5784C492.398 52.6861 482.431 56.742 474.556 65.8489C470.809 70.1789 468.525 75.2016 467.394 80.6883C467.344 80.9338 467.256 81.1716 467.186 81.4153C467.176 81.5837 467.233 81.7473 467.346 81.8711C468.982 83.2071 470.593 84.58 472.629 85.35C473.434 85.0031 473.368 84.2542 473.445 83.6227C473.979 78.8928 475.851 74.3601 478.853 70.5341C482.967 65.2287 488.334 61.8129 494.919 60.3853C502.812 58.6644 509.986 60.1892 516.456 64.6463C544.431 83.926 572.414 103.189 600.407 122.435C601.088 122.904 601.685 123.569 602.655 123.502C603.94 121.913 605.144 120.264 606.262 118.561Z"/>
<path fill="#102030" d="M599.117 128.184C598.249 129.393 597.307 130.564 596.537 131.828C595.87 132.924 595.326 132.845 594.358 132.175C584.948 125.645 575.504 119.163 566.065 112.672C565.339 112.172 564.564 111.722 563.822 111.255C561.672 110.736 560.228 109.257 558.78 107.784C557.111 106.635 555.436 105.482 553.754 104.325C551.922 103.348 550.214 102.172 548.662 100.819C547.044 99.5561 545.346 98.3939 543.575 97.3394C542.009 96.6037 540.784 95.3621 539.214 94.6326C538.841 94.4317 538.546 94.1198 538.371 93.7417C536.628 92.4331 534.89 91.1183 532.982 90.0322C532.9 90.0581 532.813 90.065 532.728 90.0521C532.644 90.0393 532.564 90.0071 532.495 89.9582C530.952 88.8056 529.425 87.6268 527.748 86.6499C527.549 86.4921 527.415 86.2709 527.367 86.024L521.155 81.7473C521.207 82.586 521.234 83.1579 521.282 83.7261C522.1 93.6181 514.828 103.162 504.799 105.414C498.027 106.934 492.08 105.347 486.592 101.563C458.117 81.9261 429.627 62.3097 401.123 42.7136C400.637 42.379 400.139 42.0609 399.643 41.7351C400.629 39.9539 401.916 38.3739 403.218 36.804C408.521 40.4546 413.824 44.1052 419.128 47.7558C424.984 51.7875 430.849 55.8088 436.721 59.8199C438.415 60.986 440.109 62.1521 441.803 63.3183L441.893 63.38C443.536 64.5107 445.178 65.6414 446.821 66.7721C448.823 67.4229 450.575 68.6287 451.863 70.2432C453.575 71.4218 455.287 72.5999 456.997 73.7775C459.062 74.4646 460.868 75.7144 462.204 77.3801C463.97 78.596 465.737 79.8119 467.503 81.0278C469.368 82.3117 471.235 83.5971 473.105 84.8838L479.405 89.2209C479.352 88.5871 479.309 88.1472 479.271 87.7012C478.841 81.2482 480.864 75.5755 485.751 71.0467C493.574 63.8001 504.552 63.0822 513.205 69.0392C541.84 88.7624 570.477 108.477 599.117 128.184ZM488.129 77.131C483.314 83.6304 484.675 92.8485 491.12 97.3313C497.98 102.103 507.366 100.626 512.353 94.005C517.305 87.4316 515.867 78.2071 509.171 73.5575C502.558 68.9618 492.968 70.6006 488.129 77.131Z"/>
<path fill="#102030" d="M563.515 111.06C561.921 109.8 560.242 108.644 558.488 107.6C556.652 111.782 554.396 115.785 551.753 119.551C546.759 126.537 540.668 132.457 533.214 136.889C513.57 148.566 493.322 150.013 472.595 141.339C469.131 139.85 465.842 138.014 462.782 135.861C433.909 116.003 405.046 96.134 376.191 76.2548C374.527 75.1095 374.893 75.1624 373.81 76.6579C372.984 77.7734 371.409 78.8809 371.604 80.0592C371.787 81.1482 373.582 81.688 374.682 82.4453C403.298 102.156 431.918 121.857 460.543 141.549C460.822 141.741 461.089 141.943 461.361 142.14C471.418 148.392 482.434 152.077 494.491 152.619C515.051 153.558 532.885 146.98 547.991 132.886C554.687 126.63 559.748 119.264 563.515 111.06Z"/>
<path fill="#26425A" d="M553.392 104.127C551.803 102.82 550.1 101.648 548.302 100.623C538.212 129.117 504.664 143.151 477.151 130.399C474.577 129.211 472.116 127.813 469.793 126.219C440.477 106.027 411.155 85.8429 381.829 65.6677C380.584 66.9872 379.666 68.5316 378.555 69.9212C378.233 70.3215 378.315 70.5925 378.711 70.8431C378.997 71.0213 379.266 71.2256 379.543 71.4161C408.212 91.1506 436.768 111.041 465.592 130.566C484.503 143.375 504.898 144.612 525.925 134.232C538.68 127.937 547.514 117.876 552.984 105.056C553.118 104.744 553.26 104.441 553.392 104.127Z"/>
<path fill="#26425A" d="M446.637 66.8162C448.32 67.9747 450.003 69.1328 451.684 70.2903C453.749 64.6655 456.639 59.474 460.57 54.8412C468.525 45.4704 478.633 39.5473 490.858 37.2171C502.575 34.9775 513.724 36.6289 524.264 41.8634C526.64 43.0851 528.92 44.4703 531.087 46.0085C559.195 65.3571 587.295 84.7123 615.387 104.074C616.314 104.712 616.77 104.666 617.364 103.72C618.177 102.431 619.126 101.235 620.016 99.9998C591.24 80.1913 562.466 60.3838 533.692 40.5773C523.143 33.2962 510.295 29.7527 497.275 30.5332C484.255 31.3138 471.843 36.3715 462.093 44.8696C455.184 50.8764 449.877 58.4115 446.637 66.8162Z"/>
<path fill="#81A8C7" d="M543.176 97.1737C541.654 95.6967 539.801 94.6701 537.976 93.5939C536.533 98.9794 534.196 103.982 530.544 108.335C521.352 119.33 509.525 124.313 495.226 123.237C488.028 122.696 481.581 120.158 475.895 115.924C475.431 115.635 474.958 115.362 474.51 115.054C446.497 95.7711 418.484 76.4876 390.47 57.2042C388.459 55.8195 388.945 55.9736 387.627 57.735C386.844 58.7915 385.926 59.7676 385.363 60.9724C385.848 61.3061 386.347 61.6212 386.833 61.9563C415.636 81.7829 444.437 101.609 473.238 121.435C481.218 126.925 490.896 129.671 500.789 129.251C510.682 128.832 520.242 125.27 528.002 119.113C535.355 113.267 540.311 105.891 543.176 97.1737Z"/>
<path fill="#81A8C7" d="M456.853 73.8299L462.063 77.4346C466.372 62.2291 476.365 52.5014 492.233 48.9071C503.405 46.378 513.819 48.6561 523.091 55.0143C551.478 74.477 579.827 93.9914 608.137 113.557C609.217 114.3 609.707 114.226 610.363 113.162C611.111 111.947 612.026 110.827 612.872 109.664C583.669 89.562 554.53 69.371 525.243 49.383C509.249 38.4654 486.184 40.0564 471.008 52.7418C464.165 58.4635 459.481 65.505 456.853 73.8299Z"/>
<path fill="#E6EAED" d="M532.542 89.851C530.831 88.3159 528.872 87.1041 526.944 85.8546C526.767 89.8442 525.661 93.7661 523.708 97.3237C521.756 100.881 519.008 103.981 515.673 106.389C512.339 108.797 508.504 110.45 504.46 111.223C500.415 111.996 496.267 111.868 492.329 110.85C489.193 110.039 486.244 108.687 483.622 106.859C454.809 87.0381 426.008 67.2011 397.219 47.3483C396.129 46.5983 395.632 46.7067 394.969 47.7783C394.214 49.0063 393.304 50.1444 392.461 51.3248C421.862 71.5636 451.264 91.8028 480.667 112.043C493.35 120.773 511.817 118.938 522.979 107.882C528.027 102.961 531.376 96.6464 532.542 89.851Z"/>
</g>
</g>
</svg>